<svg width="1440" height="232" viewBox="0 0 1440 232" fill="none" xmlns="http://www.w3.org/2000/svg">
<g clip-path="url(#clip0)">
<path d="M0 115.249C35.17 114.879 71.1401 101.149 105.56 94.9089C161.45 84.7789 218.54 81.3089 275.01 88.7089C339.78 97.2089 400.69 122.459 465.61 131.049C504.81 136.239 544.48 137.169 583.85 133.369C634.64 128.459 693.58 105.789 743.91 123.189C772.4 133.039 797.1 155.169 824.51 168.009C857.76 183.579 886.99 186.939 923.11 183.179C968.64 178.439 1012.8 164.959 1053.32 143.669C1080.03 129.639 1105.56 108.579 1136.93 106.559C1178.32 103.899 1211.03 135.809 1250.49 140.879C1274.43 143.959 1284.59 130.909 1299.64 114.789C1307.7 106.159 1315.88 97.0189 1326.4 91.2689C1361.26 72.2289 1407.56 102.069 1440 115.489" stroke="#FFDF99" stroke-miterlimit="10"/>
<path d="M0 98.839C41.19 99.339 82.6901 88.079 123.44 83.249C185.99 75.839 249.11 75.579 311.46 85.109C376.31 95.029 437.86 118.809 503.3 125.709C538.95 129.469 574.89 129.109 610.45 124.499C657.29 118.429 710.98 96.719 757.37 115.179C785.86 126.519 810.06 147.579 838.71 159.579C872.37 173.679 902.88 176.439 938.71 171.529C983.97 165.329 1026.33 149.089 1064.8 124.619C1091.64 107.549 1117.7 86.309 1150.69 83.189C1191.42 79.339 1214.78 111.149 1250.59 121.449C1272.69 127.809 1284.34 114.499 1298.54 99.529C1306.98 90.629 1315.07 80.669 1326.01 74.659C1360.77 55.569 1407.66 85.939 1440 99.119" stroke="#FFDF99" stroke-miterlimit="10"/>
<path d="M0 82.9689C46.54 81.9389 92.54 73.5189 138.89 69.7889C207.12 64.2989 275.59 66.5089 343.19 77.4989C407.97 88.0289 470.22 110.969 535.85 116.309C568.13 118.929 600.51 117.619 632.51 112.639C676.32 105.819 724.61 86.3089 767.57 106.459C795.28 119.459 818.12 137.989 847.66 148.269C880.83 159.809 913.2 160.949 947.67 155.789C992.83 149.039 1034.35 131.399 1071.06 104.439C1098.63 84.1889 1125.74 63.8189 1160.88 59.2589C1178.71 56.9389 1195.11 60.2089 1210.46 69.5489C1224.06 77.8289 1234.97 92.1289 1249.75 98.3189C1269.96 106.789 1283.98 94.7089 1298.63 81.4389C1308.02 72.9289 1316.61 62.8889 1328.31 57.3689C1363.61 40.7189 1407.97 69.7789 1440 83.2789" stroke="#FFDF99" stroke-miterlimit="10"/>
<path d="M0 67.839C52.83 68.859 105.29 62.169 157.96 59.049C227.42 54.939 297.02 56.249 365.91 66.639C459.69 80.789 547.41 114.299 643.39 101.439C686.67 95.639 730.16 79.589 773.37 94.349C801.13 103.829 825.66 122.539 852.83 133.849C885.11 147.289 913.65 148.969 947.83 143.049C992.19 135.359 1033.62 116.059 1070.87 91.119C1100.47 71.299 1126.83 47.629 1163.81 42.829C1181.09 40.589 1197.31 43.809 1211.88 53.409C1224.69 61.839 1234.21 75.939 1248.03 82.729C1268.08 92.589 1283.98 81.229 1300.05 68.999C1310.67 60.919 1320.46 51.199 1332.99 45.969C1367.69 31.479 1407.97 55.819 1439.99 68.159" stroke="#FFDF99" stroke-miterlimit="10"/>
<path d="M0 53.6588C121.9 59.6688 242.5 35.6988 364.59 51.1488C454.42 62.5188 539.59 94.2888 631.3 86.2188C676.42 82.2488 719.93 69.2388 765.46 76.9488C796.51 82.1988 823.07 99.9388 851.01 113.539C883.23 129.229 907.87 133.259 943.07 126.939C985.24 119.369 1025.68 100.009 1063.21 79.7788C1095.35 62.4588 1120.88 36.0388 1159.1 31.6988C1199.93 27.0588 1213.3 54.7788 1245.41 70.4088C1266.56 80.6988 1285.05 70.0188 1303.26 58.6388C1315.38 51.0688 1326.79 41.8488 1340.36 36.8788C1373.62 24.6888 1408.62 43.2388 1440 53.9988" stroke="#FFDF99" stroke-miterlimit="10"/>
<path d="M0 40.6286C117.42 49.2686 234.65 24.5686 352.16 35.7686C437.51 43.9086 518.92 74.1386 605.66 70.0286C651.94 67.8286 696.86 56.0586 743.44 57.4586C779.62 58.5486 807.07 73.8286 838.88 90.1586C871.6 106.959 894.47 113.909 930.9 107.659C970.87 100.809 1009.59 82.4586 1047.17 67.6586C1082.32 53.8186 1108.48 26.9086 1147.94 23.1886C1189.2 19.2986 1207.18 44.4886 1241.93 57.9286C1265.23 66.9386 1286.72 58.6686 1307.85 47.8886C1321.57 40.8886 1334.89 32.8786 1349.64 28.1386C1380.38 18.2786 1410.57 31.8786 1440 40.9386" stroke="#FFDF99" stroke-miterlimit="10"/>
<path d="M0 28.9387C113.84 39.2387 227.69 18.5787 341.55 26.8187C420.13 32.5087 495.81 58.4687 575.34 55.3787C620.79 53.6087 665.13 41.8887 710.55 39.2387C747.98 37.0587 775 48.5087 808.99 64.0287C842.05 79.1187 866.11 85.6687 902.36 81.7287C942.25 77.3987 982.88 64.3887 1021.72 54.3687C1059.93 44.5187 1090.53 19.7687 1131.14 16.7687C1172.98 13.6787 1200.29 34.9387 1238.52 45.0687C1264.59 51.9787 1288.81 46.2987 1313.45 36.8487C1328.74 30.9787 1343.78 24.2287 1359.73 20.2587C1387.68 13.2987 1412.86 21.8387 1440 29.2187" stroke="#FFDF99" stroke-miterlimit="10"/>
<path d="M0 18.8086C105.79 26.3586 211.69 13.5286 317.48 19.7986C388.52 24.0086 457.84 40.8286 529.4 38.1986C575.41 36.5086 620.86 28.1086 666.85 25.8786C701.58 24.1986 731.15 30.7386 764.9 39.3386C798.58 47.9286 829.8 51.3786 864.54 50.7286C904.44 49.9786 946.32 45.4786 985.8 39.5386C1027.84 33.2186 1066.55 14.2586 1109.5 11.8586C1153.56 9.39863 1193.17 25.1086 1235.96 31.5886C1264.82 35.9586 1291.51 32.7486 1319.68 25.5986C1336.25 21.3886 1352.69 16.5486 1369.56 13.6286C1394.33 9.33863 1415.6 13.6186 1440 19.0286" stroke="#FFDF99" stroke-miterlimit="10"/>
<path d="M0 10.4289C91.66 14.4089 183.37 8.29888 275.02 11.7089C337.64 14.0389 399.6 22.4489 462.39 21.3589C509.26 20.5389 556 16.3989 602.87 15.2789C676.36 13.5289 749.19 26.0589 822.78 26.4989C861.3 26.7289 900.45 25.5689 938.9 23.0289C987.32 19.8289 1034.99 9.25888 1083.59 7.78888C1133.72 6.27888 1183.28 14.7789 1233.16 17.9889C1302.82 22.4789 1370.82 0.968885 1440 10.5489" stroke="#FFDF99" stroke-miterlimit="10"/>
<path d="M0 3.99882C479.99 4.91882 960.04 1.33882 1440 4.00882" stroke="#FFDF99" stroke-miterlimit="10"/>
<rect x="1260" y="60.499" width="110" height="110" fill="#242433"/>
<path d="M0 228.309C247.69 229.139 495.39 228.709 743.08 228.659C857.67 228.639 972.26 228.159 1086.85 228.189C1204.45 228.219 1322.45 225.229 1440 228.309" stroke="#FFDF99" stroke-miterlimit="10"/>
<path d="M0 213.769C67.63 219.169 135.65 206.719 203.48 210.779C242.91 213.139 281.76 220.379 321.31 222.089C355.35 223.559 389.43 222.819 423.43 220.659C479.91 217.059 536.15 208.569 592.78 207.539C622.69 206.989 651.08 213.799 680.47 218.449C708.73 222.919 736.68 223.199 765.22 223.099C820.51 222.909 875.87 221.429 931.06 218.139C977.77 215.349 1024.66 210.049 1071.51 210.819C1134.28 211.839 1196.81 218.469 1259.66 216.709C1288.8 215.889 1316.47 212.469 1344.81 205.929C1354.76 203.629 1364.66 201.449 1374.78 200.029C1399.19 196.619 1417.57 203.979 1440 213.789" stroke="#FFDF99" stroke-miterlimit="10"/>
<path d="M0 198.349C26.98 200.709 55.75 191.969 82.13 187.479C118.58 181.269 155.68 176.049 192.74 177.969C239.04 180.359 284.06 195.409 330.33 199.989C369.45 203.859 408.77 204.069 447.95 201.019C504.14 196.639 560.22 182.019 616.72 182.779C648.52 183.209 677.34 197.149 707.46 205.979C736.95 214.619 765.13 215.749 795.63 215.649C848.71 215.479 902.23 213.069 954.94 206.589C993.04 201.909 1031.14 192.859 1069.73 193.919C1131.34 195.609 1192.06 208.359 1253.97 204.459C1282.26 202.679 1305.86 195.169 1332.04 185.439C1341.94 181.759 1351.88 178.649 1362.26 176.639C1391.57 170.969 1414.92 184.179 1439.99 198.389" stroke="#FFDF99" stroke-miterlimit="10"/>
<path d="M0 182.269C24.06 179.569 48.34 166.769 71.36 159.659C108.79 148.099 148.11 138.579 187.55 139.449C240.99 140.629 293.1 164.659 345.98 172.729C390.07 179.459 434.67 181.609 479.16 178.499C534.56 174.629 591.81 154.919 647.47 159.609C680.35 162.379 709.89 182.239 740.13 194.039C770.14 205.749 798.2 207.769 830.05 207.769C880 207.769 930.77 204.349 979.92 195.159C1012.39 189.089 1044.73 176.519 1078.18 178.249C1136.06 181.239 1192.53 198.789 1250.99 192.189C1277.88 189.159 1296.52 176.829 1320.32 166.139C1363.75 146.619 1398.67 157.749 1440 182.329" stroke="#FFDF99" stroke-miterlimit="10"/>
<path d="M0 165.709C58.79 132.389 130.31 103.199 198.8 104.709C225.88 105.309 248.08 114.119 273.62 122.599C309 134.349 345.03 144.299 381.65 151.339C426.99 160.059 473.27 164.289 519.43 161.959C553.85 160.219 587.42 154.059 621.27 148.069C643.34 144.159 666.81 139.289 689.13 144.289C716.99 150.529 742.71 169.829 768.11 181.989C799.96 197.239 829.23 200.769 864.07 200.959C909.67 201.209 955.66 196.509 1000.05 185.809C1029.31 178.759 1058.6 162.569 1089.29 164.409C1142.47 167.609 1193.95 190.589 1248.09 180.669C1273.83 175.949 1286.97 159.059 1309 147.919C1353.83 125.249 1398.14 141.489 1439.99 165.809" stroke="#FFDF99" stroke-miterlimit="10"/>
<path d="M0 148.889C25.52 140.189 49.57 127.269 75.17 118.459C119.04 103.349 165.88 92.8689 212.53 95.5889C241.33 97.2689 266.42 106.129 293.75 114.739C328.19 125.599 363.22 134.689 398.79 141.009C443.4 148.939 488.79 152.409 534.07 150.099C589.49 147.269 654.38 122.799 709.27 137.619C737.12 145.129 761.9 165.819 787.44 178.639C819.28 194.619 847.9 197.989 883.03 197.169C929.09 196.099 975.73 189.189 1019.69 175.099C1047.55 166.179 1074.63 147.809 1104.71 148.069C1153.45 148.489 1199.3 175.429 1248.86 170.119C1274.58 167.369 1285.65 152.949 1304.96 138.539C1349.28 105.449 1392.74 125.899 1440 149.049" stroke="#FFDF99" stroke-miterlimit="10"/>
<path d="M0 131.999C29.58 129.329 59.77 113.689 88.41 106.179C137.7 93.2586 189.04 86.2186 239.98 91.2286C304.33 97.5586 364.77 125.129 428.77 135.199C471.15 141.869 514.15 144.159 556.96 141.239C611.08 137.539 674.12 114.229 727.7 130.629C755.87 139.249 780.54 161.099 806.83 174.169C839.31 190.319 867.9 193.729 903.63 191.479C949.51 188.599 995.37 178.499 1037.87 160.769C1064.91 149.489 1090.76 129.439 1121.1 128.479C1165.46 127.069 1205.47 157.149 1249.79 156.979C1274.94 156.879 1285 143.699 1301.81 127.639C1310.05 119.779 1318.82 112.089 1329.25 107.239C1364.93 90.6786 1407.63 117.979 1440 132.199" stroke="#FFDF99" stroke-miterlimit="10"/>
</g>
<defs>
<clipPath id="clip0">
<rect width="1440" height="232" fill="white"/>
</clipPath>
</defs>
</svg>
