<svg width="376" height="520" viewBox="0 0 376 520" fill="none" xmlns="http://www.w3.org/2000/svg">
<g clip-path="url(#clip0)">
<g opacity="0.5">
<path d="M-485.589 764.628C-422.1 736.791 -371.616 692.92 -312.774 657.801C-291.879 645.324 -269.573 635.655 -245.397 631.957C-212.068 626.856 -185.863 635.224 -154.45 644.247C-98.1887 660.412 -43.3387 649.011 11.9508 635.533C20.1311 633.539 30.4522 629.786 39.0439 630.375C53.516 631.377 65.8379 645.296 76.9818 653.635C89.8832 663.304 104.711 673.133 121.529 672.627C131.617 672.318 141.872 669.201 152.044 668.546C173.668 667.161 196.629 672.356 217.683 665.757C248.6 656.069 267.382 625.817 288.734 603.671C326.654 564.349 392.217 505.877 452.022 531.608C490.792 548.297 507.34 594.105 516.932 631.854C531.311 688.446 567.538 737.54 613.693 773.052C644.629 796.855 679.911 813.188 719.037 816.342C774.485 820.807 817.668 796.855 860.663 764.618" stroke="url(#paint0_linear)" stroke-miterlimit="10"/>
<path d="M-485.589 753.396C-421.091 727.001 -373.673 681.473 -317.037 642.947C-296.507 628.981 -274.397 617.497 -249.865 612.695C-215.938 606.049 -189.752 614.979 -157.807 624.535C-99.7032 641.917 -42.7871 632.164 15.2509 621.128C23.7491 619.509 34.491 616.289 43.2696 617.469C58.3494 619.49 71.0172 635.028 82.4509 644.201C95.6609 654.806 111.087 665.86 128.812 665.626C138.937 665.495 149.67 662.098 159.794 660.89C181.858 658.241 205.277 659.795 226.125 650.95C256.21 638.182 274.889 609.082 296.877 586.449C335.012 547.193 401.669 488.804 461.156 516.81C500.132 535.165 515.735 582.874 524.617 621.615C537.593 678.253 570.95 727.74 616.741 763.674C646.835 787.289 681.398 803.145 719.747 805.925C774.859 809.913 817.976 785.389 860.654 753.396" stroke="url(#paint1_linear)" stroke-miterlimit="10"/>
<path d="M-485.589 742.164C-420.352 717.575 -376.076 669.95 -322.03 628.569C-301.986 613.219 -280.175 599.984 -255.391 594.105C-221.033 585.962 -194.744 595.659 -162.35 605.553C-102.059 623.964 -42.7403 615.512 18.1491 606.657C27.0212 605.366 38.2586 602.586 47.2709 604.308C62.9584 607.303 75.9628 624.404 87.733 634.41C114.948 657.53 134.973 658.419 167.404 652.793C190.16 648.853 213.766 646.878 234.492 635.833C263.605 620.323 282.452 592.037 305.03 569.002C343.519 529.727 411.355 471.544 470.599 501.787C509.817 521.808 524.57 571.36 532.788 611.15C544.493 667.798 574.652 717.687 620.079 754.163C649.285 777.61 683.062 793.017 720.607 795.432C775.317 798.952 818.313 773.885 860.635 742.154" stroke="url(#paint2_linear)" stroke-miterlimit="10"/>
<path d="M-485.589 730.932C-419.623 708.477 -378.469 657.773 -327.078 614.118C-308.689 598.496 -288.392 584.203 -265.067 577.117C-228.297 565.951 -200.709 577.819 -165.576 588.2C-102.742 606.77 -40.8893 598.711 22.8142 591.859C30.901 590.989 41.4839 588.621 49.552 590.146C65.7817 593.217 79.5433 612.264 91.1079 622.523C107.104 636.713 125.016 651.614 147.903 649.939C156.616 649.302 165.768 646.195 174.304 644.295C197.396 639.156 220.646 633.999 241.046 621.447C270.196 603.513 289.884 574.805 313.603 550.862C352.344 511.746 420.685 454.78 479.49 485.996C519.222 507.085 533.732 558.528 541.323 599.31C551.869 655.976 578.018 706.268 622.846 743.69C651.098 767.277 684.118 782.534 721.009 784.809C775.513 788.169 818.565 762.494 860.673 730.932" stroke="url(#paint3_linear)" stroke-miterlimit="10"/>
<path d="M-485.589 719.7C-419.735 700.071 -381.61 645.979 -333.753 600.873C-316.018 584.156 -296.264 568.365 -272.948 560.334C-236.169 547.679 -208.085 560.765 -172.709 571.061C-106.967 590.184 -42.0392 582.77 24.8242 577.276C33.313 576.583 44.513 574.365 52.899 576.256C69.6615 580.028 83.9373 600.77 95.773 611.684C112.068 626.716 130.859 643.087 154.727 641.355C163.553 640.719 172.911 637.387 181.456 635.103C205.464 628.672 228.724 620.398 249.076 605.787C277.179 585.616 297.364 557.142 321.633 532.918C361.039 493.606 430.707 437.043 489.502 470.337C529.59 493.044 543.427 546.229 550.523 588.153C560.087 644.65 582.421 695.719 626.856 733.787C654.183 757.196 686.138 772.126 722.234 774.11C776.196 777.077 819.042 750.906 860.673 719.69" stroke="url(#paint4_linear)" stroke-miterlimit="10"/>
<path d="M-485.589 708.467C-420.464 692.302 -385.135 633.979 -341.363 588.339C-324.404 570.667 -305.342 553.464 -282.147 544.571C-245.621 530.559 -216.761 545.058 -181.347 555.008C-112.315 574.383 -43.9838 567.279 26.2452 562.599C35.1641 562 47.084 559.81 55.8439 562.009C73.1207 566.352 87.9574 588.789 100.055 600.302C116.696 616.139 136.329 633.858 161.178 632.042C170.144 631.387 179.68 627.867 188.252 625.218C251.507 605.674 284.163 559.323 329.496 514.703C369.715 475.11 440.804 419.006 499.73 454.321C540.22 478.592 553.524 533.461 560.171 576.583C568.865 632.987 587.264 684.627 631.148 723.64C657.381 746.965 688.4 761.548 723.599 763.289C776.953 765.929 819.565 739.299 860.663 708.467" stroke="url(#paint5_linear)" stroke-miterlimit="10"/>
<path d="M-485.589 697.236C-423.381 690.384 -386.715 618.948 -349.973 576.602C-333.931 558.116 -315.691 539.602 -292.767 529.923C-256.793 514.741 -226.811 530.803 -191.612 540.145C-118.906 559.445 -46.8445 552.285 26.9932 547.801C36.3701 547.23 49.1407 544.9 58.312 547.361C76.0749 552.144 91.5193 576.275 103.869 588.302C120.912 604.917 141.34 623.843 167.171 621.896C176.305 621.203 185.981 617.534 194.6 614.567C257.35 592.954 291.427 540.491 337.087 496.199C378.288 456.231 450.901 400.651 510.107 437.895C551.046 463.654 564.013 520.17 570.24 564.518C578.139 620.801 592.499 673.115 635.701 713.195C660.784 736.464 690.803 750.766 725.104 752.31C777.785 754.679 820.126 727.637 860.654 697.236" stroke="url(#paint6_linear)" stroke-miterlimit="10"/>
<path d="M-485.589 686.003C-426.429 684.823 -390.819 605.515 -359.65 565.735C-344.654 546.603 -327.415 526.871 -304.902 516.519C-269.816 500.382 -238.273 518.11 -203.607 526.619C-126.824 545.47 -50.7149 537.851 27.0212 532.909C36.8937 532.282 50.6272 529.633 60.2753 532.319C78.5057 537.392 94.6138 563.198 107.179 575.666C135.394 603.662 162.468 617.346 200.481 603.082C263.062 579.588 298.027 521.686 344.398 477.413C386.748 436.977 460.998 381.939 520.644 421.027C562.143 448.218 574.802 506.298 580.738 551.919C588.049 608.089 598.118 661.114 640.534 702.43C709.071 769.196 793.473 736.37 860.654 686.022" stroke="url(#paint7_linear)" stroke-miterlimit="10"/>
<path d="M-485.589 674.771C-429.944 674.921 -396.194 594.48 -368.765 557.039C-353.722 536.503 -336.184 514.91 -312.157 504.67C-279.099 490.573 -245.827 509.518 -213.47 516.772C-134.238 534.547 -55.4454 527.022 24.5251 521.546C35.1829 520.816 50.5244 517.624 60.911 520.544C79.7491 525.842 96.5117 553.033 109.469 565.96C138.357 594.789 166.058 609.802 205.268 594.471C266.671 570.453 301.561 510.033 347.866 466.724C392.274 425.193 469.486 368.789 531.339 409.168C571.436 435.349 585.291 489.834 592.013 534.079C600.923 592.673 606.439 649.199 652.286 692.855C717.335 754.781 797.96 721.469 860.645 674.78" stroke="url(#paint8_linear)" stroke-miterlimit="10"/>
<path d="M-485.589 663.538C-431.935 661.591 -400.738 583.135 -374.281 546.378C-360.444 527.161 -344.13 506.438 -321.936 496.526C-288.972 481.812 -255.409 500.878 -222.856 507.88C-141.455 525.374 -59.9797 518.326 22.1785 512.981C35.5474 512.11 53.7684 508.17 66.5203 514.17C84.6385 522.706 99.5406 547.445 113.471 561.223C141.555 589.004 170.293 603.203 207.941 588.732C268.962 565.285 303.983 502.357 350.568 460.012C396.593 418.172 474.581 361.871 538.631 399.19C579.616 423.068 595.425 475.157 603.428 518.822C613.703 574.945 615.946 628.447 657.24 672.917C678.565 695.878 709.127 713.063 741.109 713.231C787.62 713.484 824.352 690.262 860.663 663.529" stroke="url(#paint9_linear)" stroke-miterlimit="10"/>
<path d="M-485.589 652.307C-434.02 648.207 -404.487 571.66 -379.049 535.717C-365.39 516.416 -349.347 496.086 -326.919 486.726C-295.535 473.631 -262 492.473 -231.149 498.913C-147.887 516.285 -64.2054 509.958 19.86 504.903C32.1351 504.164 51.2817 500.074 63.0426 504.361C82.1798 511.334 96.7547 535.642 110.451 549.504C139.18 578.577 170.116 598.037 210.596 582.78C271.233 559.941 303.982 493.746 353.092 453.245C400.632 411.162 479.088 355.17 545.128 389.409C586.675 410.947 604.597 460.855 613.749 503.752C619.34 529.951 619.125 556.749 626.361 582.667C634.251 610.907 647.938 638.482 668.282 659.785C688.279 680.724 713.511 695.728 742.895 698.199C787.91 701.981 825.885 677.523 860.654 652.307" stroke="url(#paint10_linear)" stroke-miterlimit="10"/>
<path d="M-485.589 641.075C-435.628 634.729 -408.722 561.373 -383.704 525.674C-370.335 506.598 -354.414 485.865 -332.033 477.039C-302.64 465.442 -270.779 482.964 -242.134 489.057C-155.367 507.515 -67.7393 501.6 20.0376 497.135C33.7524 496.442 52.5437 492.511 65.6322 498.155C82.7968 505.559 96.5864 526.919 109.516 540.051C139.171 570.181 171.976 592.018 213.896 576.35C242.476 565.66 263.941 544.89 283.443 522.117C307.077 494.514 330.337 467.847 358.085 444.138C406.858 402.457 485.239 348.375 552.037 380.33C593.827 400.314 612.983 448.022 623.238 490.311C628.876 513.562 628.577 537.524 633.999 560.793C640.74 589.753 653.501 618.077 672.816 640.766C691.476 662.687 715.961 679.301 745.064 683.111C789.069 688.858 826.474 665.458 860.663 641.075" stroke="url(#paint11_linear)" stroke-miterlimit="10"/>
<path d="M-485.589 629.842C-437.517 621.259 -412.06 551.002 -387.678 515.649C-375.309 497.705 -360.416 477.918 -339.811 468.876C-310.895 456.202 -280.904 472.798 -252.362 479.051C-162.247 498.791 -70.9366 493.493 20.4115 489.824C33.9675 489.281 50.4216 486.539 63.1548 490.957C80.5624 496.994 95.1841 517.923 107.964 530.709C138.909 561.672 173.285 585.821 217.113 569.638C245.748 559.061 266.531 537.832 285.575 514.769C308.629 486.857 331.926 460.995 359.814 437.679C409.616 396.036 487.305 342.449 555.552 370.267C598.922 387.948 620.415 434.393 631.793 477.01C638.131 500.766 637.561 525.027 643.404 548.896C650.547 578.099 662.859 606.638 682.838 629.468C699.46 648.469 721.851 663.426 746.962 667.956C789.799 675.679 826.988 653.364 860.654 629.842" stroke="url(#paint12_linear)" stroke-miterlimit="10"/>
<path d="M-485.589 618.611C-439.04 607.753 -415.238 540.575 -391.081 505.437C-378.628 487.325 -363.875 467.978 -343.046 459.133C-313.859 446.749 -280.408 465.039 -251.829 470.964C-164.033 489.151 -75.1997 485.931 13.8019 483.151C27.283 482.73 46.7007 479.154 60.135 482.683C81.4692 488.299 98.9517 515.022 114.293 529.203C145.089 557.648 178.969 578.006 220.375 562.759C248.964 552.238 269.092 530.55 287.641 507.291C310.106 479.107 333.31 454.088 361.319 431.127C412.701 389.016 491.176 335.28 561.115 361.488C604.457 377.728 627.053 422.226 639.365 464.131C646.424 488.149 645.498 513.122 651.51 537.421C657.979 563.582 669.366 589.519 686.203 610.664C701.956 630.451 723.636 646.925 748.617 652.719C790.5 662.435 827.26 641.374 860.654 618.601" stroke="url(#paint13_linear)" stroke-miterlimit="10"/>
<path d="M-485.589 607.378C-438.788 591.607 -417.837 528.8 -391.567 491.8C-379.843 475.288 -365.81 457.532 -346.58 449.483C-317.234 437.202 -282.792 456.203 -254.138 462.175C-164.585 480.82 -73.5075 478.087 17.3451 476.486C32.3501 476.224 50.8703 473.342 64.5197 479.304C83.9467 487.784 99.681 509.088 115.219 522.594C145.874 549.233 180.138 570.425 221.002 556.497C250.918 546.304 270.916 523.98 289.688 499.643C312.322 470.299 336.386 445.411 365.517 422.273C417.413 381.041 494.532 329.364 564.453 352.25C608.85 366.777 633.251 410.498 646.48 452.581C653.183 473.912 652.323 496.059 657.053 517.793C662.84 544.338 673.592 570.808 689.821 592.749C707.005 615.971 731.181 634.701 760.2 639.24C798.577 645.249 829.616 627.98 860.635 607.397" stroke="url(#paint14_linear)" stroke-miterlimit="10"/>
<path d="M-485.589 596.146C-440.733 578.362 -420.277 519.066 -394.427 482.337C-382.648 465.591 -368.699 448.041 -349.282 439.963C-322.048 428.638 -292.627 444.756 -265.974 450.952C-174.354 472.275 -79.9116 470.786 13.5214 470.272C29.1995 470.187 48.692 467.342 63.08 473.211C83.2736 481.447 99.6903 502.489 116.032 516.014C147.772 542.288 183.541 563.068 224.788 548.925C254.368 538.778 273.561 516.183 291.651 491.847C313.49 462.484 337.143 438.7 366.069 416.076C419.563 374.246 498.533 321.333 570.193 344.135C612.067 357.454 636.907 396.645 650.977 436.107C658.344 456.765 657.876 476.927 661.971 498.277C667.739 528.36 679.865 558.725 699.161 582.658C715.484 602.904 735.659 619.238 761.789 624.461C799.316 631.949 829.84 615.952 860.635 596.156" stroke="url(#paint15_linear)" stroke-miterlimit="10"/>
<path d="M-485.589 584.914C-440.835 564.444 -421.334 506.018 -393.876 468.596C-382.685 453.339 -369.363 437.399 -351.366 430.079C-323.787 418.847 -293.628 435.639 -266.778 441.808C-176.046 462.624 -83.1183 463.542 9.48267 464.262C25.89 464.393 46.0276 461.735 61.285 467.464C82.3481 475.364 99.4472 495.965 116.705 509.509C148.342 534.332 184.204 554.99 225.125 542.354C256.069 532.797 275.272 509.266 293.521 483.965C315.51 453.461 340.004 429.836 370.051 407.063C423.91 366.243 501.039 315.521 572.324 335.289C615.301 347.205 641.366 385.366 656.399 425.212C664.224 445.935 663.822 467.763 668.497 489.263C674.433 516.511 685.035 542.635 701.732 565.071C717.363 586.084 737.463 603.064 763.173 609.681C799.606 619.06 830.279 603.766 860.654 584.924" stroke="url(#paint16_linear)" stroke-miterlimit="10"/>
<path d="M-485.589 573.681C-442.434 551.255 -423.418 496.086 -395.867 458.861C-383.873 442.649 -368.98 425.258 -349.067 418.846C-322.067 410.16 -292.693 426.718 -266.834 432.784C-177.626 453.675 -85.9416 456.362 5.23825 458.384C22.8048 458.777 42.4282 456.521 59.2188 461.931C81.0953 468.989 99.2602 489.702 117.238 503.013C150.118 527.349 187.28 547.286 228.733 534.444C259.313 524.981 277.721 501.197 295.26 475.971C316.417 445.551 340.453 423.012 370.173 400.791C424.826 359.934 501.768 309.37 573.848 326.518C617.648 336.936 645.264 374.367 661.148 414.354C669.618 435.676 668.16 458.515 673.984 480.558C680.295 504.473 689.765 527.124 703.863 547.482C718.896 569.179 738.791 587.141 764.323 594.854C799.979 605.628 830.261 591.765 860.663 573.672" stroke="url(#paint17_linear)" stroke-miterlimit="10"/>
<path d="M-485.589 562.45C-442.705 537.777 -424.241 483.348 -395.026 445.851C-383.302 430.809 -369.494 415.693 -350.964 409.431C-324.498 400.492 -295.815 416.282 -270.386 422.544C-180.45 444.7 -87.8862 449.221 4.28465 452.712C21.5334 453.367 42.8582 451.214 59.3965 456.55C78.2813 462.643 95.0812 479.978 110.741 491.453C146.668 517.793 187.991 540.678 232.968 526.067C262.838 516.361 280.096 492.801 296.905 467.819C318.015 436.444 342.64 414.382 373.221 392.171C428.454 352.053 504.255 302.941 576.251 318.376C618.676 327.474 646.835 361.675 663.542 399.949C672.507 420.504 671.918 441.929 677.041 463.504C683.445 490.461 695.066 517.549 712.016 539.555C726.076 557.817 744.064 572.531 765.819 580.225C800.746 592.571 830.363 579.682 860.663 562.431" stroke="url(#paint18_linear)" stroke-miterlimit="10"/>
<path d="M-485.589 551.217C-444.697 525.13 -425.737 474.005 -396.896 436.893C-385.191 421.841 -370.999 406.126 -352.451 399.658C-323.553 389.577 -290.094 408.26 -262.804 414.943C-175.607 436.303 -85.9042 442.434 3.45261 447.198C19.1494 448.031 37.0994 446.683 52.4596 450.081C75.3831 455.154 95.3056 474.361 114.247 487.372C149.361 511.493 190.328 531.542 233.464 518.756C264.512 509.555 281.564 485.472 298.401 459.6C319.38 427.373 344.819 405.714 376.109 383.559C431.548 344.312 506.62 296.313 578.167 310.288C619.209 318.3 647.583 349.488 665.112 385.936C674.714 405.911 674.368 425.445 679.463 446.711C685.988 473.949 697.085 500.803 713.885 523.343C727.722 541.904 745.475 557.226 767.081 565.65C801.204 578.96 830.27 567.644 860.654 551.217" stroke="url(#paint19_linear)" stroke-miterlimit="10"/>
<path d="M-485.589 539.986C-445.108 511.643 -425.933 461.108 -395.353 423.808C-383.218 409.01 -368.559 394.099 -349.618 388.689C-321.665 380.714 -291.758 397.89 -265.328 404.769C-177.832 427.543 -87.4655 435.517 2.46166 441.77C18.8409 442.912 36.3515 442.388 52.3288 446.328C76.505 452.309 96.5584 470.393 117.453 483.132C153.475 505.091 195.18 523.531 237.624 510.22C267.587 500.823 283.789 476.58 299.738 451.299C319.792 419.502 344.183 399.116 374.922 377.681C431.362 338.313 507.106 289.546 579.607 302.426C621.154 309.802 650.313 340.241 668.282 377.054C676.649 394.202 677.079 411.715 681.277 430.173C687.503 457.542 699.077 484.33 715.363 507.225C730.274 528.183 752.001 547.324 776.991 554.803C807.225 563.854 833.804 553.698 860.645 539.995" stroke="url(#paint20_linear)" stroke-miterlimit="10"/>
<path d="M-485.589 528.753C-445.734 498.408 -426.223 448.79 -394.119 411.49C-381.657 397.019 -366.558 382.773 -347.449 378.093C-321.833 371.831 -295.432 386.442 -271.452 393.191C-184.152 417.761 -93.7386 428.179 -3.63379 435.957C13.054 437.399 30.8823 437.127 47.3364 440.225C71.4473 444.765 92.875 461.679 113.489 474.025C150.754 496.33 194.619 515.116 238.437 502.33C269.242 493.335 285.07 468.736 300.944 442.837C320.876 410.329 345.305 390.832 376.755 369.463C433.278 331.04 506.873 284.314 578.672 294.348C619.985 300.123 650.21 328.634 669.086 364.633C679.201 383.924 679.846 404.9 685.811 425.755C692.579 449.417 702.929 472.078 717.186 492.202C732.069 513.206 753.553 532.61 778.337 540.715C807.805 550.356 833.869 541.586 860.645 528.753" stroke="url(#paint21_linear)" stroke-miterlimit="10"/>
<path d="M-485.589 517.521C-448.249 484.845 -427.635 439.139 -395.344 402.186C-382.452 387.434 -367.157 373.328 -347.739 368.339C-319.346 361.048 -289.196 378.149 -262.776 385.674C-178.617 409.655 -91.6164 421.58 -4.73701 430.519C12.3528 432.278 30.1811 432.625 47.0092 436.144C68.2218 440.59 86.5831 452.365 105.309 463.026C145.06 485.659 191.59 506.757 238.204 494.617C270.401 486.23 285.986 461.239 301.944 434.403C321.83 400.969 346.857 382.118 379.092 360.823C435.662 323.458 508.144 277.921 579.261 286.672C621.069 291.821 651.734 319.901 671.264 355.937C680.295 372.598 681.314 391.693 686.502 409.702C693.327 433.411 703.779 456.091 717.952 476.337C732.957 497.771 754.123 517.53 779.01 526.497C807.926 536.925 833.701 529.521 860.673 517.512" stroke="url(#paint22_linear)" stroke-miterlimit="10"/>
<path d="M-485.589 506.289C-448.932 472.181 -427.401 426.326 -393.698 389.793C-380.376 375.351 -364.595 361.938 -344.944 357.688C-318.496 351.969 -292.786 366.458 -268.18 374.031C-184.591 399.771 -97.7867 413.961 -11.1223 424.435C6.31341 426.541 24.1043 427.543 41.4279 430.341C67.0626 434.488 89.2569 448.594 112.012 460.35C150.165 480.053 195.115 497.116 238.606 486.633C271.682 478.658 286.912 453.32 302.711 425.848C321.484 393.219 345.277 375.538 376.502 355.254C434.587 317.514 508.331 270.761 580.944 279.419C620.929 284.183 651.108 309.895 670.937 344.004C680.248 360.028 681.819 378.131 687.11 395.634C694.215 419.128 704.873 441.555 719.046 461.642C734.163 483.057 755.198 502.957 780.01 512.532C808.272 523.428 833.645 517.39 860.654 506.289" stroke="url(#paint23_linear)" stroke-miterlimit="10"/>
<path d="M-485.589 495.057C-449.81 459.853 -427.289 414.101 -392.558 378.139C-378.908 364.006 -362.809 351.192 -343.102 347.298C-316.635 342.075 -291.496 356.19 -267.011 364.109C-184.788 390.71 -99.3293 406.828 -13.8429 418.603C3.63024 421.009 21.2716 422.581 38.698 425.258C64.7534 429.255 87.2375 441.957 110.75 453.226C149.791 471.928 195.76 488.345 239.587 478.255C273.075 470.543 287.8 444.961 303.347 417.152C321.755 384.214 345.595 367.357 377.044 347.466C435.372 310.587 508.116 264.779 580.327 271.996C619.153 275.88 651.304 299.861 670.722 333.333C679.855 349.076 682.183 366.364 687.811 383.493C695.347 406.435 706.229 428.637 720.598 448.116C736.164 469.223 756.75 488.888 781.431 498.829C808.936 509.902 833.794 505.156 860.663 495.057" stroke="url(#paint24_linear)" stroke-miterlimit="10"/>
<path d="M-485.589 483.825C-450.437 447.367 -426.812 401.147 -390.622 365.775C-377.618 353.064 -362.23 341.429 -344.158 337.376C-315.626 330.974 -288.205 346.615 -261.972 355.413C-180.637 382.698 -96.1319 400.557 -11.4121 413.409C6.03294 416.058 23.8426 417.312 41.1941 420.298C63.7905 424.182 84.2552 435.021 105.019 444.185C146.996 462.718 197.115 481.129 243.617 469.045C275.319 460.808 289.183 435.33 303.674 408.523C321.774 375.032 346.09 358.886 377.979 339.314C435.914 303.746 506.845 259.716 577.756 264.63C616.414 267.307 648.967 289.434 669.431 321.979C678.893 337.021 681.716 353.354 687.522 369.95C695.459 392.629 706.64 414.485 721.094 433.748C756.479 480.914 803.766 503.097 860.654 483.825" stroke="url(#paint25_linear)" stroke-miterlimit="10"/>
<path d="M-485.589 472.593C-451.241 435.18 -426.541 388.81 -389.304 354.122C-375.973 341.701 -360.267 330.618 -342.111 326.902C-313.541 321.062 -286.784 336.235 -260.682 345.426C-180.805 373.572 -97.796 393.294 -14.3383 407.268C3.15348 410.198 20.8229 411.874 38.3054 414.654C61.1821 418.295 81.9834 428.151 103.262 436.846C146.051 454.34 197.227 472.237 244.065 460.565C276.132 452.571 289.567 426.869 303.805 399.771C321.559 365.99 345.922 350.696 378.035 331.573C436.139 296.959 506.059 253.884 576.429 257.535C614.581 259.51 647.331 280.13 668.356 311.805C677.958 326.266 681.277 342.225 687.428 358.278C695.926 380.452 707.509 401.737 722.094 420.532C757.489 466.162 804.102 489.628 860.654 472.593" stroke="url(#paint26_linear)" stroke-miterlimit="10"/>
<path d="M-485.589 461.36C-451.998 423.05 -426.27 376.436 -387.977 342.468C-374.309 330.347 -358.294 319.817 -340.054 316.438C-311.465 311.149 -285.344 325.826 -259.392 335.42C-181.001 364.39 -99.5536 385.88 -17.3768 400.866C0.143097 404.058 17.691 406.126 35.2763 408.719C58.4055 412.136 79.5433 421.093 101.261 429.33C144.817 445.851 196.984 463.307 244.168 452.038C276.618 444.288 289.623 418.379 303.637 391C321.091 356.967 345.501 342.515 377.839 323.86C436.111 290.248 504.984 248.156 574.792 250.599C612.45 251.909 645.358 271.069 666.935 301.855C676.677 315.745 680.528 331.32 687.035 346.802C696.141 368.452 708.136 389.138 722.879 407.465C758.414 451.617 804.458 476.131 860.663 461.36" stroke="url(#paint27_linear)" stroke-miterlimit="10"/>
<path d="M-485.589 450.128C-452.737 410.956 -426.017 364.034 -386.668 330.824C-372.663 319.002 -356.349 309.025 -338.026 305.983C-309.455 301.256 -283.923 315.418 -258.139 325.386C-181.235 355.123 -101.395 378.28 -20.5086 394.164C-2.98876 397.609 14.4657 400.005 32.1258 402.448C55.4793 405.677 76.9163 413.82 99.0452 421.617C143.322 437.23 196.395 454.359 243.944 443.501C276.787 436.004 289.38 409.899 303.197 382.239C320.334 347.925 344.791 334.325 377.362 316.176C435.681 283.677 503.703 242.362 572.838 243.803C610.047 244.58 643.002 262.177 665.178 292.12C675.041 305.44 679.453 320.622 686.344 335.532C696.085 356.621 708.519 376.698 723.459 394.529C759.228 437.239 804.822 462.596 860.654 450.119" stroke="url(#paint28_linear)" stroke-miterlimit="10"/>
<path d="M-485.589 438.896C-453.438 398.9 -425.812 351.622 -385.425 319.18C-371.102 307.676 -354.489 298.241 -336.081 295.536C-307.576 291.352 -282.577 304.999 -256.999 315.314C-181.581 345.744 -103.359 370.445 -23.734 387.097C17.2142 395.661 56.6105 400.482 96.6145 413.661C141.555 428.469 195.451 445.364 243.374 434.937C276.572 427.711 288.893 401.437 302.459 373.478C319.249 338.892 343.865 326.125 376.642 308.538C435.129 277.144 502.095 236.83 570.641 237.157C607.383 237.335 640.44 253.575 663.177 282.601C673.162 295.358 678.163 310.119 685.437 324.45C695.851 344.958 708.734 364.408 723.889 381.734C760.004 423.049 805.224 449.052 860.663 438.877" stroke="url(#paint29_linear)" stroke-miterlimit="10"/>
<path d="M-485.589 427.664C-454.148 386.872 -425.7 339.22 -384.293 307.573C-341.008 274.495 -302.677 285.689 -256.054 305.243C-182.076 336.271 -105.462 362.377 -27.0715 379.656C13.7458 388.651 53.7872 393.031 93.9314 405.471C139.479 419.577 194.105 436.387 242.401 426.391C276.011 419.436 287.977 393.003 301.384 364.764C317.922 329.925 342.603 318.001 375.633 300.974C434.334 270.713 500.216 231.466 568.192 230.699C604.494 230.287 637.654 245.244 660.943 273.334C671.058 285.53 676.658 299.87 684.334 313.601C695.44 333.482 708.79 352.296 724.169 369.116C760.705 409.065 805.636 435.536 860.654 427.673" stroke="url(#paint30_linear)" stroke-miterlimit="10"/>
<path d="M-484.131 416.394C-453.56 375.069 -424.606 327.445 -382.63 296.519C-340.176 265.237 -301.986 274.12 -256.99 293.767C-185.031 325.17 -110.689 352.483 -34.1867 370.529C9.76248 380.9 53.5527 385.328 96.9971 398.263C141.002 411.358 192.347 425.52 238.82 418.397C275.477 412.781 287.266 385.992 301.439 355.918C317.846 321.089 341.985 310.072 375.155 293.72C434.689 264.367 500.253 225.41 568.481 224.296C604.166 223.707 637.112 237.672 660.605 264.947C670.814 276.788 677.106 291.006 685.324 304.213C697.188 323.279 711.005 341.279 726.618 357.435C763.658 395.755 807.888 421.954 862.093 416.413" stroke="url(#paint31_linear)" stroke-miterlimit="10"/>
<path d="M-485.589 405.199C-455.738 363.135 -426.242 315.099 -383.302 284.968C-340.914 255.222 -302.126 263.861 -257.952 283.686C-187.302 315.398 -114.521 343.759 -39.1784 362.133C4.72412 372.841 48.8136 377.007 92.4169 389.465C136.899 402.167 188.692 416.534 235.53 409.861C272.683 404.563 284.163 377.69 298.233 347.269C314.472 312.178 338.676 301.976 372.136 286.26C431.913 258.18 496.505 220.234 564.163 218.109C599.492 217.005 632.485 229.725 656.614 256.055C681.996 283.752 697.983 318.15 725.282 345.042C762.846 382.042 806.917 408.447 860.645 405.199" stroke="url(#paint32_linear)" stroke-miterlimit="10"/>
<path d="M-485.589 393.967C-456.663 351.454 -426.924 303.361 -383.536 273.952C-338.895 243.691 -299.003 254.82 -253.315 275.637C-184.152 307.152 -113.231 335.981 -39.2438 354.018C0.451628 363.697 40.6146 366.842 80.095 377.868C127.746 391.169 183.802 408.129 234.184 401.081C271.168 395.905 282.293 368.845 296.158 338.555C312.836 302.145 338.527 293.047 373.37 277.453C431.894 251.272 493.906 215.91 559.245 212.119C595.136 210.041 629.54 221.648 654.641 248.006C680.379 275.028 698.422 307.723 726.217 333.557C764.173 368.854 807.889 394.95 860.654 393.967" stroke="url(#paint33_linear)" stroke-miterlimit="10"/>
<path d="M-485.589 382.735C-457.607 339.772 -427.84 291.652 -384.041 262.935C-341.12 234.808 -300.555 243.794 -256.569 264.217C-189.088 295.546 -120.261 324.815 -48.0131 343.254C-5.42884 354.121 37.8753 357.978 80.3942 369.5C127.98 382.398 182.839 399.771 232.688 392.554C269.214 387.266 280.171 359.897 293.661 329.869C310.05 293.384 335.563 285.222 370.537 270.442C429.912 245.357 491.961 210.247 557.534 206.129C591.789 203.976 624.155 213.991 649.64 237.354C677.799 263.169 697.992 296.566 727.133 322.129C765.491 355.778 808.824 381.509 860.654 382.726" stroke="url(#paint34_linear)" stroke-miterlimit="10"/>
<path d="M-485.589 371.503C-457.916 327.061 -427.158 276.863 -380.825 249.541C-340.101 225.523 -300.705 233.928 -260.093 252.892C-191.594 284.894 -122 315.848 -48.3684 334.081C-5.38213 344.724 38.1371 349.067 80.9644 360.898C127.12 373.647 181.905 390.813 230.407 383.896C266.961 378.682 277.385 351.323 290.81 321.277C307.077 284.885 332.3 277.406 367.424 263.497C426.93 239.928 487.623 206.222 552.374 200.559C587.376 197.499 620.808 206.344 647.611 229.688C676.303 254.67 698.45 286.232 728.096 310.756C766.753 342.74 809.88 368.115 860.663 371.494" stroke="url(#paint35_linear)" stroke-miterlimit="10"/>
<path d="M-485.589 360.271C-459.15 315.726 -428.897 265.809 -382.779 239.086C-341.26 215.021 -301.322 224.343 -260.13 243.475C-193.23 274.551 -125.693 305.224 -53.8001 322.896C-11.9637 333.183 30.3027 337.694 71.9334 349.357C119.688 362.733 173.743 381.303 224.143 375.987C263.165 371.868 273.496 344.396 287.557 312.675C303.44 276.835 328.729 269.571 363.395 256.832C423.621 234.705 483.93 201.58 548.606 195.009C584.16 191.396 618.517 199.539 646.284 222.724C675.452 247.079 699.685 276.629 729.966 300.132C768.717 330.216 811.264 354.861 860.654 360.271" stroke="url(#paint36_linear)" stroke-miterlimit="10"/>
<path d="M-485.589 349.039C-460.3 304.222 -430.645 254.193 -384.34 228.172C-341.419 204.05 -300.415 215.985 -258.373 235.173C-192.192 265.387 -125.674 295.78 -54.4919 312.282C-12.1694 322.091 29.9381 327.576 71.8492 339.978C118.454 353.766 171.611 372.252 220.871 367.497C259.893 363.725 270.009 335.775 283.817 304.232C300.103 267.016 327.523 261.054 363.199 248.764C423.219 228.097 482.724 196.216 546.568 189.43C580.374 185.836 613.712 192.36 641.357 212.896C672.741 236.212 699.31 265.593 731.059 288.834C770.156 317.448 812.292 341.597 860.663 349.039" stroke="url(#paint37_linear)" stroke-miterlimit="10"/>
<path d="M-485.589 337.217C-461.01 291.381 -430.982 239.142 -382.573 214.862C-341.999 194.513 -302.902 206.101 -263.748 223.473C-198.418 252.461 -133.425 282.676 -63.4855 298.981C-18.0499 309.577 26.1237 316.475 70.9985 330.3C116.098 344.19 169.097 364.539 217.215 359.167C255.957 354.842 265.718 327.202 279.629 295.836C296.073 258.733 323.269 253.341 359.141 241.931C420.218 222.5 480.088 190.797 544.418 183.683C578.083 179.958 611.328 185.93 639.478 205.473C711.24 255.307 771.035 320.378 860.654 337.807" stroke="url(#paint38_linear)" stroke-miterlimit="10"/>
<path d="M-485.589 321.258C-461.786 276.011 -432.216 225.467 -384.649 201.692C-344.514 181.633 -305.557 192.004 -266.852 209.685C-201.606 239.488 -136.426 270.068 -66.4865 287.346C-21.537 298.457 22.3561 306.413 66.7634 320.397C111.302 334.418 163.291 355.245 210.961 349.638C249.441 345.117 260.417 318.113 275.525 287.14C293.306 250.683 320.773 245.17 356.869 233.909C417.834 214.899 477.405 183.58 541.407 176.139C575.12 172.217 608.477 177.824 637.327 196.338C670.142 217.389 698.862 245.123 731.284 267.035C771.101 293.945 813.18 317.158 860.654 326.556" stroke="url(#paint39_linear)" stroke-miterlimit="10"/>
<path d="M-485.589 305.935C-462.721 262.083 -434.254 215.039 -389.043 191.18C-347.318 169.156 -306.884 179.115 -266.404 198.191C-201.083 228.967 -135.379 259.846 -65.0655 277.509C-23.5003 287.945 17.3077 296.238 58.3027 309.502C103.748 324.206 155.008 345.145 203.594 340.24C242.701 336.29 255.555 309.651 272.346 278.66C291.857 242.661 320.147 237.092 356.785 225.925C416.973 207.579 475.535 177.309 538.453 169.343C572.362 165.047 606.139 170.017 635.85 187.53C669.17 207.167 698.151 234.883 730.461 256.28C770.671 282.919 813.031 305.842 860.654 315.342" stroke="url(#paint40_linear)" stroke-miterlimit="10"/>
<path d="M-485.589 291.231C-463.03 247.987 -434.413 202.824 -389.622 179.883C-348.01 158.56 -307.455 167.181 -267.264 186.669C-203.009 217.828 -138.09 248.67 -68.7957 266.969C-27.726 277.808 12.7922 286.878 53.3852 300.057C98.6526 314.743 149.277 336.028 197.704 330.899C236.914 326.752 251.563 300.712 270.214 270.17C291.642 235.079 320.446 229.229 357.58 218.259C417.562 200.531 475.825 170.841 538.313 162.828C572.306 158.467 606.149 163.268 636.42 179.836C669.974 198.2 699.133 225.691 731.284 246.517C771.381 272.482 813.498 294.759 860.654 304.11" stroke="url(#paint41_linear)" stroke-miterlimit="10"/>
<path d="M-485.589 277.097C-441.583 193.642 -366.839 126.277 -270.798 174.313C-207.814 205.819 -144.026 236.698 -76.0411 255.896C-35.9156 267.222 4.06027 276.535 43.8399 289.386C90.2946 304.381 141.209 327.229 191.048 321.819C230.883 317.495 248.085 292.391 268.971 261.849C291.633 228.714 319.82 221.909 356.673 211.595C417.095 194.681 475.46 165.337 538.014 156.931C573.689 152.13 608.953 157.24 640.908 174.229C673.077 191.33 701.124 217.005 731.929 236.567C771.942 261.971 813.863 283.714 860.663 292.887" stroke="url(#paint42_linear)" stroke-miterlimit="10"/>
<path d="M-485.589 263.506C-440.77 180.229 -361.706 117.226 -267.432 165.87C-205.692 197.723 -142.615 228.49 -75.5644 247.509C-34.317 259.209 6.63125 270.226 47.6075 283.171C92.3888 297.314 141.863 319.021 189.814 312.029C227.705 306.506 246.505 281.88 268.55 253.547C293.717 221.198 322.699 214.234 360.665 203.975C421.078 187.642 479.583 158.794 542.043 151.016C576.952 146.663 611.281 151.69 642.983 167.228C675.05 182.953 702.835 208.085 733.2 226.973C772.952 251.703 814.433 272.791 860.663 281.636" stroke="url(#paint43_linear)" stroke-miterlimit="10"/>
<path d="M-485.589 250.43C-442.481 172.732 -358.378 107.548 -268.844 155.36C-209.132 187.249 -147.887 217.567 -82.95 237.307C-42.6655 249.55 -2.02584 260.258 38.2212 272.857C84.3674 287.309 134.328 309.305 183.569 302.772C222.675 297.587 244.383 273.325 268.971 245.301C296.634 213.767 326.607 206.653 365.835 196.479C425.247 181.081 482.715 153.684 543.885 145.831C578.981 141.329 613.628 146.102 645.938 160.751C677.658 175.128 705.266 199.605 735.033 217.735C774.307 241.65 815.2 261.999 860.654 270.414" stroke="url(#paint44_linear)" stroke-miterlimit="10"/>
<path d="M-485.589 237.822C-441.06 160.666 -351.778 100.172 -264.001 148.545C-208.281 179.256 -150.804 207.692 -90.1393 227.264C-51.0141 239.89 -11.0475 250.477 28.2927 262.514C76.0749 277.144 127.139 299.982 177.913 293.655C218.356 288.61 242.831 264.508 270.121 237.026C300.393 206.55 331.553 199.062 372.015 189.046C431.296 174.37 488.839 147.581 549.803 140.514C584.02 136.545 617.891 141.375 649.649 154.723C680.949 167.874 708.248 191.442 737.379 208.787C776.056 231.813 816.116 251.282 860.654 259.172" stroke="url(#paint45_linear)" stroke-miterlimit="10"/>
<path d="M-485.589 225.664C-439.358 149.313 -344.514 93.7046 -258.644 142.424C-204.906 172.919 -148.944 200.794 -90.0645 219.86C-54.0992 231.504 -17.4515 241.585 18.7942 252.368C67.5114 266.867 120.492 290.398 172.35 284.295C214.542 279.325 241.775 255.953 272.028 228.771C304.656 199.455 337.592 191.518 379.157 181.727C437.289 168.033 493.737 142.808 553.299 135.872C588.825 131.735 624.977 136.546 657.951 150.661C687.092 163.138 712.764 184.226 740.165 200.139C778.056 222.144 817.228 240.687 860.654 247.95" stroke="url(#paint46_linear)" stroke-miterlimit="10"/>
<path d="M-485.589 213.897C-440.452 143.444 -339.063 85.8695 -257.887 133.952C-206.86 164.176 -153.048 191.246 -96.8425 210.425C-57.2405 223.941 -16.526 234.911 23.7117 246.386C70.2506 259.659 118.341 280.448 167.46 275.009C211.419 270.142 241.392 247.013 274.599 220.449C308.47 193.352 341.659 184.291 383.158 175.296C442.477 162.445 500.057 137.266 560.648 131.07C595.425 127.513 630.344 132.492 662.915 145.278C691.504 156.501 716.643 176.625 743.334 191.704C780.337 212.615 818.453 230.137 860.663 236.698" stroke="url(#paint47_linear)" stroke-miterlimit="10"/>
<path d="M-485.589 202.515C-438.414 133.409 -330.864 80.6278 -251.632 128.963C-202.896 158.691 -150.86 184.806 -96.8331 203.376C-60.4284 215.891 -23.0048 225.944 14.0823 236.127C64.4917 249.971 116.2 271.958 169.134 264.769C211.859 258.975 243.738 236.586 277.778 212.109C313.846 186.172 348.932 176.728 391.722 168.014C449.741 156.201 506.237 132.717 565.322 126.773C600.268 123.263 635.243 128.205 668.225 140.196C696.197 150.37 720.738 169.249 746.775 183.514C782.75 203.227 819.809 219.691 860.645 225.485" stroke="url(#paint48_linear)" stroke-miterlimit="10"/>
<path d="M-485.589 191.47C-457.692 153.393 -418.959 126.68 -373.243 114.427C-335.324 104.262 -283.634 99.8816 -249.417 121.672C-203.607 150.847 -154.095 175.811 -102.966 194.185C-67.6458 206.877 -31.1664 216.453 5.09806 225.944C57.3398 239.619 110.498 261.999 165.161 255.044C209.849 249.353 244.552 227.526 281.527 203.657C319.904 178.881 356.729 169.156 400.949 160.741C457.632 149.958 512.875 128.177 570.445 122.552C605.55 119.126 640.45 124.068 673.816 135.3C703.415 145.259 729.395 164.654 757.087 178.89C790.042 195.851 823.698 209.582 860.645 214.244" stroke="url(#paint49_linear)" stroke-miterlimit="10"/>
<path d="M-485.589 180.725C-456.084 143.444 -415.173 119.286 -369.017 108.475C-330.238 99.386 -277.117 94.7902 -242.601 117.488C-200.905 144.895 -155.133 167.715 -108.444 185.209C-69.2351 199.895 -28.3523 209.676 12.2126 219.701C61.7431 231.944 110.488 251.46 161.954 245.301C208.381 239.75 246.262 218.26 285.846 195.131C326.261 171.506 365.05 161.509 410.607 153.459C466.859 143.519 521.896 122.768 578.962 118.097C613.123 115.298 646.919 120.409 679.547 130.555C708.342 139.503 733.733 157.428 760.696 170.748C792.603 186.51 825.091 199.156 860.645 203.012" stroke="url(#paint50_linear)" stroke-miterlimit="10"/>
<path d="M-485.589 170.252C-455.532 135.301 -414.696 114.128 -370.036 104.104C-329.097 94.9121 -271.976 89.2305 -235.749 113.548C-196.268 140.047 -152.319 161.64 -107.855 178.32C-71.6471 191.902 -33.9336 200.41 3.64896 209.227C54.6472 221.189 106.309 241.117 159.103 235.183C207.558 229.745 248.207 208.871 290.623 186.463C333.142 163.999 373.697 153.834 420.685 146.168C475.442 137.239 529.142 118.228 584.562 113.932C620.331 111.161 655.651 116.871 689.84 127.261C716.092 135.235 739.614 151.007 764.388 162.679C795.221 177.206 826.53 188.738 860.654 191.771" stroke="url(#paint51_linear)" stroke-miterlimit="10"/>
<path d="M-485.589 160.021C-455.205 125.622 -409.863 107.22 -365.698 98.6837C-325.975 91.0084 -268.161 84.6996 -232.607 107.276C-194.305 131.603 -154.665 152.944 -112.259 169.334C-77.2285 182.878 -40.7397 190.722 -4.12001 198.753C48.5798 210.322 102.682 230.717 157.102 224.97C207.315 219.663 251.002 199.314 295.868 177.674C340.191 156.295 382.682 146.046 430.95 138.839C485.127 130.742 538.481 112.874 593.266 109.551C627.969 107.445 662.223 113.07 695.552 122.552C752.796 138.848 799.054 176.401 860.663 180.547" stroke="url(#paint52_linear)" stroke-miterlimit="10"/>
<path d="M-485.589 149.987C-444.295 106.846 -377.282 91.6543 -319.795 89.1833C-292.674 88.0226 -256.494 86.4033 -231.897 99.1144C-209.188 110.843 -188.499 126.858 -165.295 138.333C-140.483 150.614 -114.895 161.911 -88.4752 170.279C-51.8088 181.886 -13.1511 187.773 24.4222 195.542C58.9945 202.693 96.9604 217.239 132.393 215.957C202.005 213.448 259.472 185.49 322.512 159.721C373.94 138.698 426.145 134.964 480.069 125.369C512.884 119.529 545.362 111.198 578.467 107.117C615.152 102.596 651.388 105.844 687.297 114.306C747.102 128.412 797.624 166.545 860.654 169.315" stroke="url(#paint53_linear)" stroke-miterlimit="10"/>
<path d="M-485.589 140.13C-442.107 98.9175 -372.981 86.7775 -315.392 84.971C-288.158 84.1192 -250.613 82.088 -225.932 94.9208C-204.607 106.013 -185.171 120.895 -163.276 131.584C-140.034 142.938 -116.017 153.712 -91.2985 161.452C-53.9216 173.162 -14.0766 178.216 24.2726 185.592C59.2282 192.322 97.5026 206.372 133.197 204.968C203.968 202.188 264.493 175.305 329.608 150.922C382.167 131.238 434.858 127.475 489.549 118.63C521.616 113.444 553.411 105.891 585.731 102.343C621.995 98.3653 657.829 101.894 693.346 109.869C750.58 122.711 800.597 156.95 860.654 158.083" stroke="url(#paint54_linear)" stroke-miterlimit="10"/>
<path d="M-485.589 130.396C-439.499 90.9902 -367.858 81.7705 -309.567 80.769C-281.913 80.2916 -243.91 78.326 -219.22 91.4489C-198.727 102.344 -179.889 115.776 -158.648 125.801C-136.454 136.274 -113.437 146.617 -89.8401 153.535C-48.4245 165.675 -4.01715 170.055 38.3521 177.721C71.9988 183.805 106.683 195.253 141.115 193.334C210.578 189.477 272.084 164.168 336.984 141.965C389.665 123.938 441.758 119.95 496.243 112.163C527.973 107.633 559.442 100.734 591.359 97.5611C627.221 93.9855 662.663 97.5798 697.843 105.002C753.029 116.656 803.074 147.245 860.654 146.851" stroke="url(#paint55_linear)" stroke-miterlimit="10"/>
<path d="M-485.589 120.774C-436.834 83.3898 -363.025 76.8751 -303.883 76.6037C-275.809 76.4727 -237.759 74.6006 -212.872 87.8358C-193.024 98.3847 -174.504 110.431 -153.805 119.735C-131.751 129.638 -108.959 139.56 -85.5022 145.616C-53.2391 153.937 -18.4051 157.513 14.3441 162.81C52.8242 169.044 94.483 182.298 133.561 182.102C207.193 181.718 275.394 154.527 344.473 132.811C399.276 115.579 453.378 111.948 509.733 104.581C538.715 100.79 567.51 95.1648 596.641 92.5627C632.017 89.4083 666.991 93.0494 701.751 99.9385C755.105 110.515 805.308 137.473 860.654 135.638" stroke="url(#paint56_linear)" stroke-miterlimit="10"/>
<path d="M-485.589 111.217C-434.562 76.332 -359.78 72.1761 -300.134 72.3726C-271.779 72.4662 -233.224 70.407 -207.861 83.3052C-188.752 93.021 -170.774 103.926 -150.851 112.368C-129.648 121.354 -107.799 130.536 -85.3713 135.975C-52.2669 144.006 -16.5541 147.094 17.0085 152.046C55.9935 157.793 97.9607 170.317 137.441 169.98C211.709 169.353 281.704 143.697 352.101 123.423C407.438 107.492 461.755 103.944 518.428 97.4297C546.549 94.2004 574.549 89.2396 602.792 87.1523C637.561 84.5876 671.928 88.3597 706.107 94.7714C756.647 104.244 808.459 129.507 860.654 124.396" stroke="url(#paint57_linear)" stroke-miterlimit="10"/>
<path d="M-485.589 101.697C-431.898 69.2084 -355.807 67.2522 -295.039 68.0103C-266.076 68.3754 -228.69 66.5314 -202.392 79.1302C-186.096 86.9365 -170.512 95.5384 -153.637 102.306C-133.93 110.215 -113.67 118.284 -93.1496 123.862C-51.8274 135.104 -6.86856 137.135 35.4072 142.835C72.2045 147.796 111.526 159.019 148.735 157.156C221.591 153.506 289.819 132.202 359.824 113.837C414.674 99.451 468.131 95.8099 524.093 90.3623C552.579 87.5917 580.953 83.0521 609.533 81.4328C642.796 79.542 675.761 83.3329 708.501 89.0612C757.872 97.6913 810.011 119.248 860.645 113.173" stroke="url(#paint58_linear)" stroke-miterlimit="10"/>
<path d="M-485.589 92.1689C-429.757 62.488 -353.61 62.3195 -292.141 63.4146C-262.58 63.9388 -225.661 62.2352 -198.362 73.9915C-182.151 80.9742 -166.482 88.6121 -149.785 94.6119C-130.386 101.585 -110.567 108.736 -90.5506 113.753C-48.1346 124.368 -2.35306 125.903 40.9043 131.107C78.0101 135.581 117.491 145.999 154.933 144.127C227.808 140.467 296.98 120.82 367.508 103.981C422.443 90.8585 475.872 87.3859 531.75 82.7713C559.245 80.4968 586.675 76.6592 614.245 75.4611C646.779 74.0477 679.051 77.8854 711.118 83.1177C759.415 90.9989 811.404 108.736 860.654 101.931" stroke="url(#paint59_linear)" stroke-miterlimit="10"/>
<path d="M-485.589 82.6126C-427.747 55.8801 -352.012 57.1718 -289.795 58.529C-259.495 59.1936 -223.445 57.827 -194.922 68.4695C-178.468 74.6097 -162.406 81.2835 -145.578 86.5439C-126.151 92.6092 -106.425 98.8337 -86.5399 103.27C-42.9366 113.005 3.49 114.231 47.7945 118.939C85.1808 122.917 124.755 132.474 162.393 130.611C234.913 127.017 304.515 109.12 375.137 93.8541C453.874 76.8281 537.359 71.5864 618.078 69.1434C649.817 68.1887 681.351 71.9795 712.679 76.7064C760.424 83.9137 812.255 98.0194 860.654 90.6998" stroke="url(#paint60_linear)" stroke-miterlimit="10"/>
<path d="M-485.589 72.9808C-425.933 49.2997 -351.03 51.7239 -288.084 53.2777C-256.98 54.0453 -221.987 53.2122 -192.183 62.4694C-175.13 67.7672 -158.349 73.4862 -141.025 78.0165C-121.196 83.202 -101.18 88.4905 -81.0428 92.3562C-36.1867 100.977 10.7635 102.072 56.1524 106.265C93.7724 109.738 133.365 118.387 171.181 116.561C242.906 113.098 312.415 97.0644 382.644 83.436C460.334 68.3569 541.632 63.8359 620.92 62.4226C700.535 60.9998 781.431 91.9444 860.654 79.4673" stroke="url(#paint61_linear)" stroke-miterlimit="10"/>
<path d="M-485.589 63.2561C-423.82 42.5515 -349.403 45.8837 -285.251 47.6621C-253.568 48.542 -219.968 48.4858 -189.163 56.2734C-170.783 60.916 -152.506 65.5867 -133.93 69.4712C-113.138 73.8143 -92.2147 78.2697 -71.2077 81.4989C-20.8171 89.2304 31.0413 90.2132 81.8058 94.3317C116.64 97.1584 152.082 103.551 187.093 101.689C255.546 98.0476 322.531 84.3351 389.927 72.7192C466.354 59.5401 545.914 55.5714 623.631 55.2625C702.461 54.9537 781.89 80.5255 860.645 68.2357" stroke="url(#paint62_linear)" stroke-miterlimit="10"/>
<path d="M-485.589 53.3901C-422.54 35.9428 -349.721 39.7149 -285.045 41.5027C-231.308 42.9816 -181.254 51.3589 -128.545 59.8017C-106.547 63.3211 -84.4925 66.8873 -62.373 69.555C-10.711 75.7982 41.7551 76.9027 93.6415 80.394C128.354 82.7247 163.646 88.2565 198.49 86.5436C265.269 83.2582 331.001 71.5768 397.014 61.6738C471.637 50.4884 548.485 47.2217 624.061 47.6336C702.957 48.0642 781.665 68.5722 860.654 57.0031" stroke="url(#paint63_linear)" stroke-miterlimit="10"/>
<path d="M-485.589 43.3558C-421.623 29.2501 -350.703 33.0878 -285.718 34.7726C-230.663 36.2047 -177.318 43.1967 -122.767 49.5148C-99.1143 52.2573 -75.4241 54.953 -51.7059 57.0871C1.09668 61.8327 54.2733 63.0308 107.197 65.8669C141.714 67.7202 176.744 72.316 211.344 70.7903C275.898 67.9449 339.761 58.3882 403.791 50.2823C476.189 41.1281 550.074 38.5354 623.136 39.4807C702.517 40.501 781.113 56.0107 860.663 45.7614" stroke="url(#paint64_linear)" stroke-miterlimit="10"/>
<path d="M-485.589 33.1164C-421.165 22.4084 -352.348 25.9278 -287.354 27.3973C-230.158 28.689 -173.578 34.1366 -116.597 38.5359C-90.7843 40.5296 -64.9627 42.4203 -39.1223 44.0209C14.6994 47.3624 68.6519 48.5325 122.53 50.6947C156.765 52.0706 191.412 55.6742 225.704 54.4013C287.444 52.0987 348.773 44.751 410.196 38.5359C479.929 31.4783 550.569 29.5408 620.714 30.767C701.059 32.1803 780.104 42.0272 860.654 34.5297" stroke="url(#paint65_linear)" stroke-miterlimit="10"/>
<path d="M-485.589 22.6423C-421.231 15.3789 -354.639 18.2056 -290.028 19.3288C-229.962 20.3772 -170.035 24.1025 -110.034 26.8357C-81.5289 28.1273 -53.0147 29.2786 -24.5099 30.3644C63.7064 33.7247 153.372 39.893 241.625 37.3658C299.916 35.6997 358.019 30.6733 416.16 26.4144C482.79 21.5378 549.859 20.2368 616.685 21.4629C698.254 22.9512 778.954 28.7545 860.645 23.3162" stroke="url(#paint66_linear)" stroke-miterlimit="10"/>
<path d="M-485.589 11.8964C-358.556 4.42706 -230.177 11.7748 -103.05 14.3207C72.0736 17.8307 246.674 21.0319 421.667 13.8714C568.052 7.88094 714.287 17.2598 860.654 12.0743" stroke="url(#paint67_linear)" stroke-miterlimit="10"/>
<path d="M-485.589 0.842527C-36.8412 -0.252606 411.906 1.49774 860.654 0.842527" stroke="url(#paint68_linear)" stroke-miterlimit="10"/>
</g>
</g>
<defs>
<linearGradient id="paint0_linear" x1="187.537" y1="525.277" x2="187.537" y2="816.879" gradientUnits="userSpaceOnUse">
<stop stop-color="#DE9900"/>
<stop offset="1" stop-color="#DE9900" stop-opacity="0.25"/>
</linearGradient>
<linearGradient id="paint1_linear" x1="187.533" y1="509.468" x2="187.533" y2="806.351" gradientUnits="userSpaceOnUse">
<stop stop-color="#DE9900"/>
<stop offset="1" stop-color="#DE9900" stop-opacity="0.25"/>
</linearGradient>
<linearGradient id="paint2_linear" x1="187.523" y1="493.386" x2="187.523" y2="795.762" gradientUnits="userSpaceOnUse">
<stop stop-color="#DE9900"/>
<stop offset="1" stop-color="#DE9900" stop-opacity="0.25"/>
</linearGradient>
<linearGradient id="paint3_linear" x1="187.542" y1="477" x2="187.542" y2="785.105" gradientUnits="userSpaceOnUse">
<stop stop-color="#DE9900"/>
<stop offset="1" stop-color="#DE9900" stop-opacity="0.25"/>
</linearGradient>
<linearGradient id="paint4_linear" x1="187.542" y1="460.257" x2="187.542" y2="774.34" gradientUnits="userSpaceOnUse">
<stop stop-color="#DE9900"/>
<stop offset="1" stop-color="#DE9900" stop-opacity="0.25"/>
</linearGradient>
<linearGradient id="paint5_linear" x1="187.537" y1="443.137" x2="187.537" y2="763.47" gradientUnits="userSpaceOnUse">
<stop stop-color="#DE9900"/>
<stop offset="1" stop-color="#DE9900" stop-opacity="0.25"/>
</linearGradient>
<linearGradient id="paint6_linear" x1="187.533" y1="425.607" x2="187.533" y2="752.455" gradientUnits="userSpaceOnUse">
<stop stop-color="#DE9900"/>
<stop offset="1" stop-color="#DE9900" stop-opacity="0.25"/>
</linearGradient>
<linearGradient id="paint7_linear" x1="187.533" y1="407.646" x2="187.533" y2="739.998" gradientUnits="userSpaceOnUse">
<stop stop-color="#DE9900"/>
<stop offset="1" stop-color="#DE9900" stop-opacity="0.25"/>
</linearGradient>
<linearGradient id="paint8_linear" x1="187.528" y1="395.274" x2="187.528" y2="726.707" gradientUnits="userSpaceOnUse">
<stop stop-color="#DE9900"/>
<stop offset="1" stop-color="#DE9900" stop-opacity="0.25"/>
</linearGradient>
<linearGradient id="paint9_linear" x1="187.537" y1="386.982" x2="187.537" y2="713.233" gradientUnits="userSpaceOnUse">
<stop stop-color="#DE9900"/>
<stop offset="1" stop-color="#DE9900" stop-opacity="0.25"/>
</linearGradient>
<linearGradient id="paint10_linear" x1="187.533" y1="378.802" x2="187.533" y2="698.588" gradientUnits="userSpaceOnUse">
<stop stop-color="#DE9900"/>
<stop offset="1" stop-color="#DE9900" stop-opacity="0.25"/>
</linearGradient>
<linearGradient id="paint11_linear" x1="187.537" y1="370.669" x2="187.537" y2="683.99" gradientUnits="userSpaceOnUse">
<stop stop-color="#DE9900"/>
<stop offset="1" stop-color="#DE9900" stop-opacity="0.25"/>
</linearGradient>
<linearGradient id="paint12_linear" x1="187.533" y1="362.586" x2="187.533" y2="669.513" gradientUnits="userSpaceOnUse">
<stop stop-color="#DE9900"/>
<stop offset="1" stop-color="#DE9900" stop-opacity="0.25"/>
</linearGradient>
<linearGradient id="paint13_linear" x1="187.533" y1="354.57" x2="187.533" y2="655.149" gradientUnits="userSpaceOnUse">
<stop stop-color="#DE9900"/>
<stop offset="1" stop-color="#DE9900" stop-opacity="0.25"/>
</linearGradient>
<linearGradient id="paint14_linear" x1="187.523" y1="346.625" x2="187.523" y2="640.451" gradientUnits="userSpaceOnUse">
<stop stop-color="#DE9900"/>
<stop offset="1" stop-color="#DE9900" stop-opacity="0.25"/>
</linearGradient>
<linearGradient id="paint15_linear" x1="187.523" y1="338.642" x2="187.523" y2="626.34" gradientUnits="userSpaceOnUse">
<stop stop-color="#DE9900"/>
<stop offset="1" stop-color="#DE9900" stop-opacity="0.25"/>
</linearGradient>
<linearGradient id="paint16_linear" x1="187.533" y1="330.878" x2="187.533" y2="612.521" gradientUnits="userSpaceOnUse">
<stop stop-color="#DE9900"/>
<stop offset="1" stop-color="#DE9900" stop-opacity="0.25"/>
</linearGradient>
<linearGradient id="paint17_linear" x1="187.537" y1="323.084" x2="187.537" y2="598.637" gradientUnits="userSpaceOnUse">
<stop stop-color="#DE9900"/>
<stop offset="1" stop-color="#DE9900" stop-opacity="0.25"/>
</linearGradient>
<linearGradient id="paint18_linear" x1="187.537" y1="315.467" x2="187.537" y2="585.119" gradientUnits="userSpaceOnUse">
<stop stop-color="#DE9900"/>
<stop offset="1" stop-color="#DE9900" stop-opacity="0.25"/>
</linearGradient>
<linearGradient id="paint19_linear" x1="187.533" y1="307.812" x2="187.533" y2="571.511" gradientUnits="userSpaceOnUse">
<stop stop-color="#DE9900"/>
<stop offset="1" stop-color="#DE9900" stop-opacity="0.25"/>
</linearGradient>
<linearGradient id="paint20_linear" x1="187.528" y1="300.318" x2="187.528" y2="558.243" gradientUnits="userSpaceOnUse">
<stop stop-color="#DE9900"/>
<stop offset="1" stop-color="#DE9900" stop-opacity="0.25"/>
</linearGradient>
<linearGradient id="paint21_linear" x1="187.528" y1="292.969" x2="187.528" y2="544.809" gradientUnits="userSpaceOnUse">
<stop stop-color="#DE9900"/>
<stop offset="1" stop-color="#DE9900" stop-opacity="0.25"/>
</linearGradient>
<linearGradient id="paint22_linear" x1="187.542" y1="285.579" x2="187.542" y2="531.471" gradientUnits="userSpaceOnUse">
<stop stop-color="#DE9900"/>
<stop offset="1" stop-color="#DE9900" stop-opacity="0.25"/>
</linearGradient>
<linearGradient id="paint23_linear" x1="187.533" y1="278.371" x2="187.533" y2="518.273" gradientUnits="userSpaceOnUse">
<stop stop-color="#DE9900"/>
<stop offset="1" stop-color="#DE9900" stop-opacity="0.25"/>
</linearGradient>
<linearGradient id="paint24_linear" x1="187.537" y1="271.238" x2="187.537" y2="505.194" gradientUnits="userSpaceOnUse">
<stop stop-color="#DE9900"/>
<stop offset="1" stop-color="#DE9900" stop-opacity="0.25"/>
</linearGradient>
<linearGradient id="paint25_linear" x1="187.533" y1="264.252" x2="187.533" y2="490.767" gradientUnits="userSpaceOnUse">
<stop stop-color="#DE9900"/>
<stop offset="1" stop-color="#DE9900" stop-opacity="0.25"/>
</linearGradient>
<linearGradient id="paint26_linear" x1="187.533" y1="257.317" x2="187.533" y2="478.151" gradientUnits="userSpaceOnUse">
<stop stop-color="#DE9900"/>
<stop offset="1" stop-color="#DE9900" stop-opacity="0.25"/>
</linearGradient>
<linearGradient id="paint27_linear" x1="187.537" y1="250.497" x2="187.537" y2="465.666" gradientUnits="userSpaceOnUse">
<stop stop-color="#DE9900"/>
<stop offset="1" stop-color="#DE9900" stop-opacity="0.25"/>
</linearGradient>
<linearGradient id="paint28_linear" x1="187.533" y1="243.767" x2="187.533" y2="453.304" gradientUnits="userSpaceOnUse">
<stop stop-color="#DE9900"/>
<stop offset="1" stop-color="#DE9900" stop-opacity="0.25"/>
</linearGradient>
<linearGradient id="paint29_linear" x1="187.537" y1="237.155" x2="187.537" y2="441.085" gradientUnits="userSpaceOnUse">
<stop stop-color="#DE9900"/>
<stop offset="1" stop-color="#DE9900" stop-opacity="0.25"/>
</linearGradient>
<linearGradient id="paint30_linear" x1="187.533" y1="230.69" x2="187.533" y2="429.415" gradientUnits="userSpaceOnUse">
<stop stop-color="#DE9900"/>
<stop offset="1" stop-color="#DE9900" stop-opacity="0.25"/>
</linearGradient>
<linearGradient id="paint31_linear" x1="188.981" y1="224.278" x2="188.981" y2="420.306" gradientUnits="userSpaceOnUse">
<stop stop-color="#DE9900"/>
<stop offset="1" stop-color="#DE9900" stop-opacity="0.25"/>
</linearGradient>
<linearGradient id="paint32_linear" x1="187.528" y1="218.043" x2="187.528" y2="411.553" gradientUnits="userSpaceOnUse">
<stop stop-color="#DE9900"/>
<stop offset="1" stop-color="#DE9900" stop-opacity="0.25"/>
</linearGradient>
<linearGradient id="paint33_linear" x1="187.533" y1="211.883" x2="187.533" y2="402.734" gradientUnits="userSpaceOnUse">
<stop stop-color="#DE9900"/>
<stop offset="1" stop-color="#DE9900" stop-opacity="0.25"/>
</linearGradient>
<linearGradient id="paint34_linear" x1="187.533" y1="205.844" x2="187.533" y2="394.249" gradientUnits="userSpaceOnUse">
<stop stop-color="#DE9900"/>
<stop offset="1" stop-color="#DE9900" stop-opacity="0.25"/>
</linearGradient>
<linearGradient id="paint35_linear" x1="187.537" y1="199.975" x2="187.537" y2="385.483" gradientUnits="userSpaceOnUse">
<stop stop-color="#DE9900"/>
<stop offset="1" stop-color="#DE9900" stop-opacity="0.25"/>
</linearGradient>
<linearGradient id="paint36_linear" x1="187.533" y1="194.188" x2="187.533" y2="376.919" gradientUnits="userSpaceOnUse">
<stop stop-color="#DE9900"/>
<stop offset="1" stop-color="#DE9900" stop-opacity="0.25"/>
</linearGradient>
<linearGradient id="paint37_linear" x1="187.537" y1="188.493" x2="187.537" y2="368.26" gradientUnits="userSpaceOnUse">
<stop stop-color="#DE9900"/>
<stop offset="1" stop-color="#DE9900" stop-opacity="0.25"/>
</linearGradient>
<linearGradient id="paint38_linear" x1="187.533" y1="182.636" x2="187.533" y2="360.049" gradientUnits="userSpaceOnUse">
<stop stop-color="#DE9900"/>
<stop offset="1" stop-color="#DE9900" stop-opacity="0.25"/>
</linearGradient>
<linearGradient id="paint39_linear" x1="187.533" y1="174.956" x2="187.533" y2="350.574" gradientUnits="userSpaceOnUse">
<stop stop-color="#DE9900"/>
<stop offset="1" stop-color="#DE9900" stop-opacity="0.25"/>
</linearGradient>
<linearGradient id="paint40_linear" x1="187.533" y1="167.888" x2="187.533" y2="340.968" gradientUnits="userSpaceOnUse">
<stop stop-color="#DE9900"/>
<stop offset="1" stop-color="#DE9900" stop-opacity="0.25"/>
</linearGradient>
<linearGradient id="paint41_linear" x1="187.533" y1="161.305" x2="187.533" y2="331.679" gradientUnits="userSpaceOnUse">
<stop stop-color="#DE9900"/>
<stop offset="1" stop-color="#DE9900" stop-opacity="0.25"/>
</linearGradient>
<linearGradient id="paint42_linear" x1="187.537" y1="155.214" x2="187.537" y2="322.631" gradientUnits="userSpaceOnUse">
<stop stop-color="#DE9900"/>
<stop offset="1" stop-color="#DE9900" stop-opacity="0.25"/>
</linearGradient>
<linearGradient id="paint43_linear" x1="187.537" y1="148.875" x2="187.537" y2="313.381" gradientUnits="userSpaceOnUse">
<stop stop-color="#DE9900"/>
<stop offset="1" stop-color="#DE9900" stop-opacity="0.25"/>
</linearGradient>
<linearGradient id="paint44_linear" x1="187.533" y1="139.068" x2="187.533" y2="303.955" gradientUnits="userSpaceOnUse">
<stop stop-color="#DE9900"/>
<stop offset="1" stop-color="#DE9900" stop-opacity="0.25"/>
</linearGradient>
<linearGradient id="paint45_linear" x1="187.533" y1="131.236" x2="187.533" y2="294.738" gradientUnits="userSpaceOnUse">
<stop stop-color="#DE9900"/>
<stop offset="1" stop-color="#DE9900" stop-opacity="0.25"/>
</linearGradient>
<linearGradient id="paint46_linear" x1="187.533" y1="124.111" x2="187.533" y2="285.285" gradientUnits="userSpaceOnUse">
<stop stop-color="#DE9900"/>
<stop offset="1" stop-color="#DE9900" stop-opacity="0.25"/>
</linearGradient>
<linearGradient id="paint47_linear" x1="187.537" y1="116.241" x2="187.537" y2="275.897" gradientUnits="userSpaceOnUse">
<stop stop-color="#DE9900"/>
<stop offset="1" stop-color="#DE9900" stop-opacity="0.25"/>
</linearGradient>
<linearGradient id="paint48_linear" x1="187.528" y1="110.257" x2="187.528" y2="266.177" gradientUnits="userSpaceOnUse">
<stop stop-color="#DE9900"/>
<stop offset="1" stop-color="#DE9900" stop-opacity="0.25"/>
</linearGradient>
<linearGradient id="paint49_linear" x1="187.528" y1="106.042" x2="187.528" y2="256.353" gradientUnits="userSpaceOnUse">
<stop stop-color="#DE9900"/>
<stop offset="1" stop-color="#DE9900" stop-opacity="0.25"/>
</linearGradient>
<linearGradient id="paint50_linear" x1="187.528" y1="101.003" x2="187.528" y2="246.474" gradientUnits="userSpaceOnUse">
<stop stop-color="#DE9900"/>
<stop offset="1" stop-color="#DE9900" stop-opacity="0.25"/>
</linearGradient>
<linearGradient id="paint51_linear" x1="187.533" y1="96.2197" x2="187.533" y2="236.262" gradientUnits="userSpaceOnUse">
<stop stop-color="#DE9900"/>
<stop offset="1" stop-color="#DE9900" stop-opacity="0.25"/>
</linearGradient>
<linearGradient id="paint52_linear" x1="187.537" y1="91.6191" x2="187.537" y2="225.97" gradientUnits="userSpaceOnUse">
<stop stop-color="#DE9900"/>
<stop offset="1" stop-color="#DE9900" stop-opacity="0.25"/>
</linearGradient>
<linearGradient id="paint53_linear" x1="187.533" y1="88.4121" x2="187.533" y2="216.036" gradientUnits="userSpaceOnUse">
<stop stop-color="#DE9900"/>
<stop offset="1" stop-color="#DE9900" stop-opacity="0.25"/>
</linearGradient>
<linearGradient id="paint54_linear" x1="187.533" y1="84.3164" x2="187.533" y2="205.066" gradientUnits="userSpaceOnUse">
<stop stop-color="#DE9900"/>
<stop offset="1" stop-color="#DE9900" stop-opacity="0.25"/>
</linearGradient>
<linearGradient id="paint55_linear" x1="187.533" y1="80.3818" x2="187.533" y2="193.548" gradientUnits="userSpaceOnUse">
<stop stop-color="#DE9900"/>
<stop offset="1" stop-color="#DE9900" stop-opacity="0.25"/>
</linearGradient>
<linearGradient id="paint56_linear" x1="187.533" y1="76.4414" x2="187.533" y2="182.104" gradientUnits="userSpaceOnUse">
<stop stop-color="#DE9900"/>
<stop offset="1" stop-color="#DE9900" stop-opacity="0.25"/>
</linearGradient>
<linearGradient id="paint57_linear" x1="187.533" y1="72.3037" x2="187.533" y2="169.987" gradientUnits="userSpaceOnUse">
<stop stop-color="#DE9900"/>
<stop offset="1" stop-color="#DE9900" stop-opacity="0.25"/>
</linearGradient>
<linearGradient id="paint58_linear" x1="187.528" y1="67.8916" x2="187.528" y2="157.363" gradientUnits="userSpaceOnUse">
<stop stop-color="#DE9900"/>
<stop offset="1" stop-color="#DE9900" stop-opacity="0.25"/>
</linearGradient>
<linearGradient id="paint59_linear" x1="187.533" y1="63.1016" x2="187.533" y2="144.35" gradientUnits="userSpaceOnUse">
<stop stop-color="#DE9900"/>
<stop offset="1" stop-color="#DE9900" stop-opacity="0.25"/>
</linearGradient>
<linearGradient id="paint60_linear" x1="187.533" y1="57.9404" x2="187.533" y2="130.849" gradientUnits="userSpaceOnUse">
<stop stop-color="#DE9900"/>
<stop offset="1" stop-color="#DE9900" stop-opacity="0.25"/>
</linearGradient>
<linearGradient id="paint61_linear" x1="187.533" y1="52.3594" x2="187.533" y2="116.812" gradientUnits="userSpaceOnUse">
<stop stop-color="#DE9900"/>
<stop offset="1" stop-color="#DE9900" stop-opacity="0.25"/>
</linearGradient>
<linearGradient id="paint62_linear" x1="187.528" y1="46.3135" x2="187.528" y2="102.023" gradientUnits="userSpaceOnUse">
<stop stop-color="#DE9900"/>
<stop offset="1" stop-color="#DE9900" stop-opacity="0.25"/>
</linearGradient>
<linearGradient id="paint63_linear" x1="187.533" y1="39.8779" x2="187.533" y2="86.8673" gradientUnits="userSpaceOnUse">
<stop stop-color="#DE9900"/>
<stop offset="1" stop-color="#DE9900" stop-opacity="0.25"/>
</linearGradient>
<linearGradient id="paint64_linear" x1="187.537" y1="32.999" x2="187.537" y2="71.0955" gradientUnits="userSpaceOnUse">
<stop stop-color="#DE9900"/>
<stop offset="1" stop-color="#DE9900" stop-opacity="0.25"/>
</linearGradient>
<linearGradient id="paint65_linear" x1="187.533" y1="25.6514" x2="187.533" y2="54.6691" gradientUnits="userSpaceOnUse">
<stop stop-color="#DE9900"/>
<stop offset="1" stop-color="#DE9900" stop-opacity="0.25"/>
</linearGradient>
<linearGradient id="paint66_linear" x1="187.528" y1="17.8379" x2="187.528" y2="37.9583" gradientUnits="userSpaceOnUse">
<stop stop-color="#DE9900"/>
<stop offset="1" stop-color="#DE9900" stop-opacity="0.25"/>
</linearGradient>
<linearGradient id="paint67_linear" x1="187.533" y1="8.63477" x2="187.533" y2="18.1616" gradientUnits="userSpaceOnUse">
<stop stop-color="#DE9900"/>
<stop offset="1" stop-color="#DE9900" stop-opacity="0.25"/>
</linearGradient>
<linearGradient id="paint68_linear" x1="187.533" y1="0.472656" x2="187.533" y2="0.993979" gradientUnits="userSpaceOnUse">
<stop stop-color="#DE9900"/>
<stop offset="1" stop-color="#DE9900" stop-opacity="0.25"/>
</linearGradient>
<clipPath id="clip0">
<rect width="1347" height="1081" fill="white" transform="translate(-486)"/>
</clipPath>
</defs>
</svg>
