<svg width="222" height="24" viewBox="0 0 222 24" fill="none" xmlns="http://www.w3.org/2000/svg">
<path d="M9.39021 8.4981V13.5206H8.18872L4.65127 9.56553V23.6637H0V0H1.75L9.39021 8.4981Z" fill="white"/>
<path d="M145.319 0H155.343V4.19234H149.913V23.6637H145.319V0Z" fill="white"/>
<path d="M80.679 5.28555L82.8293 2.91865L82.8448 1.11899H75.6461V5.28555L71 5.28554V23.6637H72.7842L81.2514 14.4179V23.6637H85.9026V5.25977H84.1185L75.6513 14.3612V5.28554L80.679 5.28555Z" fill="white"/>
<path fill-rule="evenodd" clip-rule="evenodd" d="M106.957 7.60086C105.328 9.36442 104.518 11.6436 104.518 14.4488C104.497 17.2695 105.307 19.5746 106.957 21.3691C108.602 23.1584 110.675 24.035 113.181 23.9989C115.708 24.035 117.802 23.1584 119.462 21.3691C121.128 19.5797 121.937 17.2695 121.901 14.4488C121.901 11.6282 121.086 9.33863 119.462 7.58537C117.838 5.83212 115.744 4.95551 113.181 4.95551C110.654 4.95551 108.581 5.83729 106.957 7.60086ZM116.11 10.602C116.827 11.5302 117.183 12.8245 117.183 14.4746C117.183 16.1454 116.827 17.4397 116.11 18.3627C115.399 19.2806 114.429 19.7395 113.202 19.7395C111.959 19.7395 110.99 19.2806 110.293 18.3627C109.597 17.4449 109.252 16.1402 109.252 14.4488C109.252 12.7781 109.597 11.4838 110.293 10.5762C110.99 9.66352 111.959 9.20972 113.202 9.20972C114.424 9.20972 115.393 9.67383 116.11 10.602Z" fill="white"/>
<path d="M35.9262 5.25977H34.142L25.6749 14.3612V5.28554H21.0236V23.6637H22.8078L31.275 14.4179V23.6637H35.9262V5.25977Z" fill="white"/>
<path d="M52.8348 23.6637H47.6266L44.9555 18.5948L42.2792 23.6637H37.1019L42.2792 14.3612L37.3237 5.28555H42.4751L44.9555 10.2411L47.4049 5.28555H52.5821L47.6833 14.3612L52.8348 23.6637Z" fill="white"/>
<path d="M90.4663 6.54377L91.7451 5.28555H103.059V23.6637H98.4384V9.46241H94.8442L94.8185 10.3236C94.7978 13.959 94.5967 16.7487 94.2048 18.6876C93.8129 20.6265 93.2302 21.9724 92.4619 22.7253C91.6884 23.4781 90.59 23.7927 89.1616 23.8494C88.5325 23.8494 87.9653 23.8442 87.4651 23.6586V19.7344C87.5218 19.7499 87.7332 19.7602 88.1045 19.7602C88.6821 19.7602 89.1307 19.4818 89.4556 18.9248C89.7804 18.3679 90.028 17.3881 90.193 15.9752C90.3631 14.5675 90.4456 12.6079 90.4456 10.1018L90.4663 6.54377Z" fill="white"/>
<path d="M210.564 5.28555L209.285 6.54377L209.264 10.1018C209.264 12.6079 209.182 14.5675 209.011 15.9752C208.846 17.3881 208.599 18.3679 208.274 18.9248C207.949 19.4818 207.5 19.7602 206.923 19.7602C206.552 19.7602 206.34 19.7499 206.283 19.7344V23.6586C206.784 23.8442 207.351 23.8494 207.98 23.8494C209.408 23.7927 210.507 23.4781 211.28 22.7253C212.049 21.9724 212.631 20.6265 213.023 18.6876C213.415 16.7487 213.616 13.959 213.637 10.3236L213.663 9.46241H217.257V23.6637H221.877V5.28555H210.564Z" fill="white"/>
<path fill-rule="evenodd" clip-rule="evenodd" d="M137.108 18.2906C137.108 19.8479 136.541 21.137 135.411 22.1477C134.277 23.1584 132.859 23.6637 131.152 23.6637H123.355V5.28555H129.481C131.245 5.28555 132.694 5.7806 133.828 6.77583C134.963 7.77105 135.525 9.06535 135.525 10.6587C135.525 11.9582 135.118 13.0463 134.298 13.9177C136.169 14.7737 137.108 16.2279 137.108 18.2906ZM129.254 9.15819H127.78V12.5822H129.229C129.806 12.5822 130.25 12.4326 130.564 12.1387C130.879 11.8396 131.039 11.4219 131.039 10.8856C131.039 10.3494 130.884 9.9265 130.58 9.6171C130.27 9.3077 129.832 9.15819 129.254 9.15819ZM132.627 18.0379C132.627 16.8673 132.003 16.2846 130.76 16.2846H127.78V19.7911H130.76C132.003 19.7911 132.627 19.2084 132.627 18.0379Z" fill="white"/>
<path fill-rule="evenodd" clip-rule="evenodd" d="M172.071 22.2199L172.597 23.6637H177.506L170.158 5.23395H168.374L161 23.6637H165.899L166.42 22.2199H172.071ZM169.261 13.9744L170.736 18.5432H167.786L169.261 13.9744Z" fill="white"/>
<path fill-rule="evenodd" clip-rule="evenodd" d="M65.0766 23.6637L64.5507 22.2199H58.899L58.3782 23.6637H53.4794L60.8533 5.23395H62.6375L69.9857 23.6637H65.0766ZM63.2202 18.5432L61.7454 13.9744L60.2707 18.5432H63.2202Z" fill="white"/>
<path fill-rule="evenodd" clip-rule="evenodd" d="M190.545 22.1477C191.675 21.137 192.242 19.8479 192.242 18.2906C192.242 16.2279 191.303 14.7737 189.432 13.9177C190.246 13.0463 190.654 11.9582 190.654 10.6587C190.654 9.06535 190.092 7.77105 188.957 6.77583C187.828 5.7806 186.379 5.28555 184.615 5.28555H178.489V23.6637H186.286C187.993 23.6637 189.411 23.1584 190.545 22.1477ZM182.914 9.15819H184.388C184.966 9.15819 185.404 9.3077 185.714 9.6171C186.018 9.9265 186.173 10.3494 186.173 10.8856C186.173 11.4219 186.013 11.8396 185.698 12.1387C185.384 12.4326 184.94 12.5822 184.363 12.5822H182.914V9.15819ZM185.894 16.2846C187.137 16.2846 187.761 16.8673 187.761 18.0379C187.761 19.2084 187.137 19.7911 185.894 19.7911H182.914V16.2846H185.894Z" fill="white"/>
<path d="M193.335 23.6637V5.28555H204.948V9.3232H197.986V12.2779H202.999V15.9752H197.986V19.7086H205.252V23.6637H193.335Z" fill="white"/>
<path d="M159.938 4.19235L155.343 4.19234V23.6689H159.938V4.19235Z" fill="white"/>
<path d="M18.7804 5.23911V23.6637H14.1343V14.5984L10.5968 18.5535H9.3902V13.5258L17.0014 5.23911H18.7804Z" fill="white"/>
</svg>
