<svg width="648" height="144" viewBox="0 0 648 144" fill="none" xmlns="http://www.w3.org/2000/svg">
<path d="M648.16 108.38C596.51 103.32 552.89 72.28 501.93 65.56C468.31 61.13 443.02 74.35 414.83 89.82C382.73 107.44 363.12 105.18 329.66 94.57C307.77 87.63 289.4 92.24 270.51 103.76C230.52 128.14 197.8 114.69 161.41 88.68C144.61 76.67 123.48 55.48 101.69 54.3C86.69 53.48 73.69 63.02 62.06 71.24C41.49 85.79 24.76 101.33 0.15 108.38" stroke="#FFB81C" stroke-miterlimit="10"/>
<path d="M648.16 99.43C607.56 96.16 582.19 65.6 543.67 57.97C502.74 49.86 461.94 64.16 423.28 75.82C403.97 81.64 384.15 87.76 363.83 88.5C346.71 89.12 335.5 83.4 319.51 78.18C297.65 71.05 279.59 76.85 262.76 91.02C249.72 102 240.2 110.35 221.84 109.73C197 108.89 172.88 91.91 153.52 78.24C136.95 66.55 113.96 44 92.59 43.08C57.11 41.56 33.1 89.2 0.16 99.43" stroke="#FFB81C" stroke-miterlimit="10"/>
<path d="M648.16 90.48C625.52 88.55 621.24 84.07 607.52 67.9C599.8 58.81 594.61 51.1 582.73 47.34C536.8 32.78 478.96 51.99 433.46 61.9C408.75 67.28 383.47 73.54 358.06 74.25C340.35 74.74 330.6 69.8 314.21 64.27C292.29 56.88 274.06 63.57 258.67 79.32C246.29 92 238.58 100.81 219.23 100.07C193.67 99.09 168.41 81.82 148.11 68.2C131.38 56.97 107.31 34.13 86.11 33.49C51.51 32.44 32.32 80.64 0.179999 90.49" stroke="#FFB81C" stroke-miterlimit="10"/>
<path d="M648.16 81.53C625.27 78.94 623.82 76.43 615.02 57.65C610.26 47.49 608.2 40.16 596.98 35.66C571.88 25.59 535.47 32.99 509.9 36.81C485.78 40.41 461.88 45.61 438.01 50.55C411.55 56.03 384.57 62.66 357.47 64.02C339.41 64.93 330.49 59.96 313.92 54.04C291.76 46.11 273.53 53.21 258.28 69.44C246 82.5 238.54 91.72 218.88 90.87C193.33 89.77 167.56 72.3 147.05 58.99C130.26 48.09 105.71 25.39 84.74 24.71C50.52 23.6 31.94 71.77 0.16 81.53" stroke="#FFB81C" stroke-miterlimit="10"/>
<path d="M648.16 144.18C432.35 140.61 216.04 143.32 0.16 144.18" stroke="#FFB81C" stroke-miterlimit="10"/>
<path d="M648.16 135.23C597.39 128.13 547.68 111.04 496.65 106.39C474.26 104.35 461.06 114.4 443.57 125.91C423.13 139.37 407.77 138.75 384.12 136.55C360.74 134.37 336.95 135.91 313.54 137.01C268.34 139.13 225.29 138.24 180.86 128.93C157.69 124.08 134.51 118.46 110.71 117.97C73.17 117.19 37.48 132.6 0.16 135.24" stroke="#FFB81C" stroke-miterlimit="10"/>
<path d="M648.16 126.28C591.99 117.66 538.4 91.5 481.82 86.36C454.49 83.88 444.4 97.64 428.8 116C408.88 139.44 390.95 133.05 364.15 126.03C342.1 120.25 320.31 123.18 298.16 126.65C255.2 133.38 219.03 131.36 179 113.15C158.89 104 138.71 92.82 116.09 91.83C75.64 90.06 39.77 120.57 0.16 126.28" stroke="#FFB81C" stroke-miterlimit="10"/>
<path d="M648.16 117.33C590.03 110.13 536.75 78.9899 478.48 73.7699C448.15 71.0499 435.28 84.1899 416.77 104.21C393.9 128.96 373.05 120.29 344.53 111.33C322.7 104.48 303.12 108.2 282.27 115.76C240.11 131.05 207.43 124.35 170.36 99.2299C152.39 87.0599 133.2 69.8499 110.5 68.2599C71.21 65.4999 37.65 108.55 0.16 117.32" stroke="#FFB81C" stroke-miterlimit="10"/>
<path d="M648.16 72.5799C627 69.9099 625 67.2099 615.68 50.1899C610.49 40.7199 607.96 34.2899 597.51 29.8099C573.86 19.6899 536.82 27.7599 512.59 31.2299C489.13 34.5899 465.87 39.3899 442.63 43.9499C416.51 49.0699 389.94 55.1999 363.27 56.5699C344.75 57.5199 335.88 52.1099 319.05 45.4899C296.49 36.6099 278.41 44.5199 261.76 59.9199C248.74 71.9599 239.17 82.0599 219.88 81.4899C195.05 80.7599 168.78 63.2099 148.6 50.7999C131.38 40.2099 106.23 18.2799 85.2 17.6299C51.7 16.5799 31.03 62.4299 0.16 72.5899" stroke="#FFB81C" stroke-miterlimit="10"/>
<path d="M648.16 63.63C628.51 61.01 625.4 58.04 614.95 43.01C609.12 34.63 605.61 28.32 595.66 24.44C572.6 15.45 538.41 23.04 514.95 26.43C492.8 29.63 470.82 34.08 448.85 38.33C423.91 43.15 398.58 48.88 373.14 50.36C354.54 51.44 345.29 45.41 328.48 38.38C305.28 28.68 286.7 37.02 267.96 51.1C253.54 61.93 241.21 72.3 221.91 71.82C197.49 71.21 171.16 54.67 150.78 43.18C132.79 33.04 107.21 12.67 85.89 12.11C52.89 11.24 30.59 53.6 0.16 63.64" stroke="#FFB81C" stroke-miterlimit="10"/>
<path d="M648.16 54.68C629.82 52.23 624.97 48.85 613.11 36.09C606.42 28.89 601.58 22.78 591.92 19.53C569.64 12.03 539.26 18.84 516.82 22.21C496.41 25.27 476.16 29.41 455.92 33.36C432.73 37.89 409.22 43.25 385.59 44.89C367.28 46.16 357.36 39.47 340.81 32.36C316.84 22.07 297.18 30.56 276.12 42.87C259.94 52.33 244.48 62.4 224.8 61.9C200.54 61.29 174.44 46.52 153.47 36.05C134.42 26.54 108.57 8.35001 86.74 7.93001C54.13 7.31001 30.45 45.18 0.16 54.68" stroke="#FFB81C" stroke-miterlimit="10"/>
<path d="M648.16 45.7299C630.91 43.5399 623.62 39.7199 610.45 29.4599C602.8 23.4999 596.38 17.75 586.78 15.1C549.26 4.73995 500.47 21.3 463.09 28.76C441.98 32.97 420.6 37.94 399.09 39.7C381.39 41.16 370.69 33.97 354.63 27.12C329.91 16.58 308.65 24.95 285.46 35.15C267.31 43.14 248.81 52.36 228.35 51.82C204.02 51.18 178.42 38.5599 156.54 29.3799C136.09 20.7999 110.26 5.17995 87.68 4.91995C55.46 4.55995 30.49 37.16 0.16 45.7299" stroke="#FFB81C" stroke-miterlimit="10"/>
<path d="M648.16 36.78C621.88 33.8 605.46 16.48 580.71 11.17C545.77 3.69001 504.09 17.31 469.62 24.24C450.65 28.05 431.47 32.51 412.18 34.32C395.36 35.9 383.99 28.62 368.59 22.33C343.3 12.01 320.1 19.92 295.28 27.86C275.1 34.32 254.02 42.21 232.44 41.65C208 41.01 182.7 30.85 159.92 23.12C138.01 15.69 112.08 3.01001 88.68 2.90001C56.88 2.74001 30.58 29.47 0.16 36.77" stroke="#FFB81C" stroke-miterlimit="10"/>
<path d="M648.16 27.83C621.65 25.34 599.96 11.79 574.19 7.74003C542.05 2.70003 506.33 13.41 474.76 19.49C457.75 22.76 440.59 26.55 423.33 28.25C407.58 29.8 395.9 23.08 381.26 17.64C355.69 8.15003 330.56 15.18 304.78 20.88C282.69 25.77 259.69 31.95 236.86 31.43C212.23 30.87 187.12 23.22 163.47 17.2C139.68 11.14 114.32 2.36003 89.64 1.65003C58.61 0.770026 30.27 22.17 0.16 27.83" stroke="#FFB81C" stroke-miterlimit="10"/>
<path d="M648.16 18.88C620.63 16.98 594.96 7.63002 567.71 4.83002C538.09 1.79002 506.94 9.45002 477.75 14.22C462.63 16.69 446.41 20.83 431.05 21.02C416.03 21.21 405.82 17.21 391.27 12.72C365.73 4.84002 339.25 10.51 313.25 14.12C289.61 17.4 265.42 21.62 241.47 21.21C216.6 20.79 191.52 15.67 167.1 11.53C141.96 7.27002 116.09 1.41002 90.52 0.960018C59.77 0.410018 30.46 14.95 0.16 18.88" stroke="#FFB81C" stroke-miterlimit="10"/>
<path d="M648.16 9.93003C619.2 8.81003 590.65 3.92003 561.74 2.43003C533.85 1.00003 505.57 5.28003 477.86 8.13003C449.44 11.05 425.18 12.95 397.23 7.25003C371.96 2.09003 345.5 5.75003 319.92 7.48003C269.59 10.88 220.97 10.37 170.7 6.08003C144.31 3.83003 117.77 0.94003 91.26 0.64003C60.72 0.29003 30.57 7.87003 0.16 9.93003" stroke="#FFB81C" stroke-miterlimit="10"/>
<path d="M648.16 0.979986C432.17 0.489986 216.15 0.199986 0.16 0.979986" stroke="#FFB81C" stroke-miterlimit="10"/>
</svg>
